<mxfile host="app.diagrams.net" agent="Mozilla/5.0 (Windows NT 10.0; Win64; x64) AppleWebKit/537.36 (KHTML, like Gecko) Chrome/135.0.0.0 Safari/537.36 Edg/135.0.0.0" version="26.2.14">
  <diagram name="Page-1" id="VAzxKeQNNC8r2Bv51LuV">
    <mxGraphModel dx="3016" dy="2306" grid="1" gridSize="10" guides="1" tooltips="1" connect="1" arrows="1" fold="1" page="1" pageScale="1" pageWidth="850" pageHeight="1100" math="0" shadow="0">
      <root>
        <mxCell id="0" />
        <mxCell id="1" parent="0" />
        <mxCell id="k0PMzmDsmBYJnkLfqHaI-1" value="" style="shape=image;verticalLabelPosition=bottom;labelBackgroundColor=default;verticalAlign=top;aspect=fixed;imageAspect=0;image=data:image/png,iVBORw0KGgoAAAANSUhEUgAAALEAAACGCAYAAACSVmvQAAAAAXNSR0IArs4c6QAAIABJREFUeF7sfQd4HNW1/y3TZ7bvatW7ZEsu2BY1kMSEhEASajAtFBPAgCku9JJEEHoJAQIkhACmJAT/34OQDnkJBDAQx9hIsnqzrC6tts5On/t/42A/Q2y8ktdEMp7v40Ow5557ym9nz7333HMgOPAcsMAMtwCc4fIfEP+ABcABEB8AwYy3wAEQz3gXHlDgAIgPYGDGW+AAiGe8Cw8ocADEBzAw4y1wAMQz3oUHFDgA4gMYmPEWOADiGe/CAwocAPEBDMx4CxwA8Yx34QEFDoD4AAZmvAUOgPgjFxZWzKkUMBATicjg8PDw2L7z7GKqrGxwEcaU0dnZvHHfzfP54fy5BvHixYup3t5eSjWZr3Asd7eiqoDn6H6LmL/d2t32eLZhMGfOHH80qT/s94a+qulGgpj6W3o6+XTfYPfb2Z7r88Tvcw3iylm139E08k2ak45Lp2UfzVCAmBYQBW48Ho0+K/D0r7q72/65t4AoLy/3mCZ9CcvyyyAEFaZpAwghIMQC4XAo1t+/5UWTIncP9fRs2du5Po/jP7cgDhWGb+AE6S5CWFs3iCrwvGAY5gPEsk6iKabSNk3N5/Ew0Xji5K09Da9OFRylpaW5mBGfN03zGJ5lAUIIJBPxNRSitgZDwVsi0aiJaZZKJBKdNrFfGhvacvNU5/q8jvtcgTg3tzKEGeto1TZ/UFSUVxuJTgDbpgYxRd3d16w+AUCnFi6uKudY9z1et3Ta6OioEvIH4fD40M0sAr/ZurWzK1OgVFZWuilevNowrG+ZprkIAShbltUOLPvuvr7Olxw+RUVFZ4iSbyWimLmqZkgOwFOyvAYQ8Bgw7Z7h4c59GJtnqsn0p/tcgLi4uNgHofhtRVNPcLmlL1rI9iVT8WZREt6BBL64RZLeAhs2GNvd5S+oLCSqvjgQCF1j2/ZBtm0BAO11iWji4omJvuY9uBVVVNd+3ef3nb9lYOAMjuMAy/Aj6WTyQVO1nhkd7RnZeXxdXR29dev4iZwonEBsdAbLc5xhGMMYo7/EY7H/ioz2vjL9YfSflXC/B3FJScXRHk/OCllOn4QQACaxAaLAX1VdvoxHaEtnZ6e2OxcEg+XVoou/RDOs0wVBKFR0dRMv8JvkSOq2kZG2nl2Nq5674E4Cybkul7twcHAQCLz0tm2bd/Tmhf4C3njD3N1c4fB8kWLNb2KKOhdCcBwAwKYoSjZN7T1W4J5ob9xwAMy7Md5+CeL8/HxhcHBQmz13/ipM6FXJpJzPMJwZCPi08YnIjxMx8+6xseZUZu+PSjYQBscJkviY5PbkRyIRIPHSKxokF5FEDA4Oto87fApLK7/sdnuuAxAcZ9gWGh8fBx6/78FeYt0Ampv1zOZyqBZThUVjL9EcfYrzX16v18Gz2r914DKW4l7t7988kTmvzwfl/ghiqmL27As5Trw9EpnwszQHtLTWKYquV6JR+Y6Jic7EVFxbUD672rTp1X5P4PxoIsEBAkFhUeEr41u3rErIsaMLinIfNwyNdd706XT6d5qm/Tgy0Pc/U5nLGVNQWnM4seFNhJBKmqZqGIZREsnEH4Fh3uZ2457OzqnpMVV5pvO4/QrE+SUVX8AsfXY6LZ/Lc4Jb5PiEpui/UtTU2pG9ANT/OXAx5ckZuNDl8V3KsfyCVDIBIDQaPRI/L5GMAY5lOg3D+DG01F/29fVFs+B45C+oPNTW7TMomjrB7XZXxGLJtCjxr5mG/v+wlfjv/v5+JQvzzGgW+wWIS0pmldkIrjaJ9XWeF8pVXcMMRQ8nUvGrbBq9HuvtjWXLS7W1tcx4EhVBSF/M0Oh6joFA02TZNPVfUAD+rK+vc08Lv6mIgoIFNTfzHHcDQFBwYnsIYVrT1YeJpbw9vKX791Nhur+MmdEgrqurE5JJbYVhwxW6ZoZZSbA1TVMJBI6j2/o7mmYDsO1GN9kXDistP+hSTIHFkDZv69y8eV+Ad5vYToyvWq6LGZb+IUDEhTFWbGDzDE0DFlGqJIn3fPCPN+r3hY4zgeeMBHF5uc8DoX8ORTHPJBJqlSB5Ac8LYGBk6DWP28PolrnY7XH1tW5cVzITnJCJjL5Q2RUuj+8RREGgmvEcaNN35eTknEdMSMciMcAy7NZkKna1xhqvRbu745nw3F9oZhSIP8p1qKNZ+sxQKOfK4aFR7JL8IKUY/62q6mumRj1vIu1+lmcuNUy9cayvbf7+4qiikjmXp3X9Tt3S2eToFs7Ry19QerjIeW+0dXuBy+0u0nUVIoTfMTX5Fgjpnp6ejZ+LY+yZAOJt4UBlZSULEPgBwvhkXdNrJEkClgkGNVX/HoTs71jWjDU3N+tF5fMf10zjUpdbaO5q2jBnfwCx31/pJtA+h2LxnQzH8gPdTexHekFvbmmJwEr5Ii8+kE6nDxcFDhBCunVVbRYEdllLy4YhAAAFANjtHvVMt9G0B7FzoqUoyiIbkHt1XV8kCIJk2zYwTevRhGneOtz58aPZklkL1ybi8dO8XvdYT+umnJnuoO3yO29i0eX6yXg0AsYHOv7Nb77yck++FL5AU7UHeZ4HsfgE4Dhu1DaMh7u6mu5yNpv3F1t8Uo9pDeK8vLwSimUeRxB+naZpRNN0KpVKfehxue9uamr63a6cUlA66zFMM5dBYDds6dh80P7iuIC39CrM0bdTDOUa7Gv5VL8VFs9agTC8haZpPySWaZomlUwk50YiQy37iz121mNag7i6evbDBIDlGGOs6/rbpmE+0dfX89ynOaKkctaTNsAXKmqqZ7y/r3w/cRr2eUov5CXhXtEteDpa/rlHv5VU1ixChJzvdrkuSyQSNMsyj7a2NF6xn9jjY2rs0Rj/KaXD4bDI8+LPEcZn6Zr2Fk3zV/T0tDXsSZ6cguKnMcMs9bk9zc0f7h8xsaOzz12y3BP0PmCYKjfQ14Yy2TasrKwMMaz0tmEY1WlZfn1goPfYPdlvJn4+bUFcWFjop2nmpwTAJQBTf+3tbDsmEwPnl5Q8QQi6WBTEps7WpnmZjJkJNOFw+UrMUHcBYHODWzsz9lt5dc1blmUdRWPqj53tzd+YCbpOVsaMjTFZxntLX1FRkcPx3POmCb9mQ/ByR0vTqZnwrKytfQ4hdA7H8HLDB+ulTMZMdxpnd4JiyVm5uaFH0ukU3dnWlLHfDjniqI2jo6MLXLz4QVPTxrrprutU5MvYGFNhvjdjSktLOYbjfkZsdJ4FyOvd7S0Z/RQWlVc/aZrGhSzDNvd2tu4XW2yOLRIp41KP13u3osjs8EBvxn4rn1X7djKZPNItCq92dbSdtDc+ma5jMzbGZ62AczNCM4w1DM2fbAHy597ONifHdo9PcUX1M4ZhnC/wfHdXW3PFHgfMEIJQfulVPMvdr+sKHB7YQmcqdtXsuf9Q9PQhIi/+qW1z4/GZjptJdNMWxGVlZeFgTvC5WFT+GsDodx0tTSdkYtjy6tqnAQRLGYYZaW3clJvJmJlAk5tbepkkSQ9hBtNtzR9m7LdFhx/+z9HR0TpJFN9vbWw8fCboOlkZMzbGZBnvLf28efN8um79RNONsymWWdfZuvnITHiWlFc9Ztr2ZRzHdXS1bq7OZMx0p1mwYIE3nbYvs2zjNkVXqcG+noz9VjN//jpFVY+AwP5TT3vngTfxZ+ns+fPni8lk+gXDtE6iGPbF3q7WszKZv6i88gUC7CWSKI63NjbmZzJmJtDkFZau4Bj2fkJsqrfn30/sdqdDdW3NH1wu17HpZPJ3Lc0tJ88EXScrY8bf6Mky3lv6ior5ObwAn1IU/ZuIol7raG38eiY8i8srbwQInM6y7IcdmzcvzWTMDKCBJSVVpypK+kKGYz39fd0Z/So5elXWVs4RWGG2ruiNra2t7TNA10mLOG1B7NxQdrncj8lp/UzM0G91tW3+Uiba1dTU5BGMy5Btdzc3Nw9nMmYm0DgJUKqKgpZlUENDB4qs7OyzaQviwsJCXhQ9v9Z04wROEH7XunlTRgu7mQDIAzJm1wLTFsQLFy4MxWLyzyFCJ3GC66/NjeszOrHLrnkOcJsJFpi2IK6urgtKLuqZyHjsmxTL/q2rveEr2TZo3QknCEmJWwTDntw0UkOAoxSEOaSplt/PeyKyoaK0lrIYUbAZGxIhTd7d7MnpBvX10z6t0blA8MZHdS6cdNYNHxWHce4IOnnXu7ElBgBYH3224++dx2fbB9ngN21BnJ9fJzBc8jlgo1NFt+uPmxvWZ/3cv+bUU/OMwtAaUJhz9JAVo9x5ISArBlBTGsgN5IGEnAIaUoFuGcDDCCBkMxvalt90cDYMv695LFhQt2RoZHQhx7I14fywJxmLJVKqJldWlM6Px2ODE/HYgN8fKDJUAxHD3kIzTHEw6A+2tLY0eDy+YFFhrrt/oH/YsCyzurKqrrurt8s0rFGfz1eoaZo5EY32B/zBQDKW+nlH967TYve1jtv5T1sQV1YuDDEseVJTjRN1y3xza2/b4mwbpebsU0vGvJ7n0yF3iVQSLhpLxwmNGIhNCEjaIARBiNwCQDwF5PEJEKKF3rEJUDHd38ROBmBefnFUMw2aEOLUdwOSSwCpVAqwLAssYAHTdC56IMBRHFAUBdD0vw4BKRoB59KBqqqApvG2Aoi6rgOPxwcmJiaAKLiApmmAYRhgmzYI+XNGI5H4F7u7P/yP7XxMWxCXlc0Nh8PeF0ZGIsdACr/e3dGUUe7EZIBec/a3qwYl9qGiQxYcO2Go5yUTcq9Is6xk2TRK6zGG5b0TxJZpr+uO8XTssOJggGrpTfKgvn5aX/U5+IgjXxkcGDxJEMU0x7FRimU98Xh82CSG7nV7QwQBFwC2bJq2rKsmATYxfD6vEI1GEcuyvMsj6TRFuUdHR0c4jtcRgoUIUjTDMKl4LK7QDG3JcrpA5EQQG4sDSRAn7LQ1r23rxsHJ2D9btNMSxIWFR/Beb9KtaeQFG6JjDN1Y19fbmvHeaKbGqTnnjEVjHuphrrhgvm2jLw/eePcmJ093yZIleO3atdtjQxBYsXw5leu5S7e15uimrUeBjz5bvHQp98Yzz6jOfLVLljDNa9fuMtbcOT7dme7TxmSqw67o/Dl5cY/X59Y09fLBLd2PhWprpbHmf5XtcpKJent7t8kMFi927t6B7TXinG287bXpwvPniyMNDbLzsXPw1PDR39toPB47L5rSOYYHtmYBlmKAKAlx07RObGxc9/e9kX0qY6cliCsr5y+yLGs5ptklhBC3bdtDlmk9b1v6Q/397QNTUXRXY0rPPLl03M89G6woPVxOJvxj9Y/tsj5bxUXnL6MqCh8alBONlq2dJLj8J+mKWigIUpFqpOMQAyhQFGXbdlpPazxCwLJYykpbpggplMQQYSSbmIFYSRuqYOpGmqcYQlLa3xJN3a9/WqHBqehaVFwaI5Dx2MC+YnBL56NT4bGnMXmltYRjeWATy3mwE14IghAxNfXE1qb16/Y0PpufTysQl5XNmsVJ7kslwb0ymUxti82c+AsAoGGM0gBYQ9FEdE10tP/ebBih/MxvHzwREh4sr519VN/6Lvf4U08ld8V3zgXfOT8e9t7omV0h9gwMnSQFg0/yLvfC4YlxYHHUtsosDAQAWQTYprUtjiQUAjoiwGYpQHQTiKoNOIoBCrEBQRAA1QBWQtmkjaSOAw899LFyr3ur2/yDFhLDQkDVtGt7Opru31t+uxo/b+EXSSKVApzAPg0xKudY7stDQ0PALbk7eJY+t2HD2+/vi3l3xXNagNhfWemmNfMGluGvZmiOMQwLEAJihJAO3TQeVNPp0uLi4u/H41FAM9hWFFkwLOOqPL/3qe0/c1MxWPmSJcWjrL0mXFI4y2fhb/7z7h/tshFM4VmnXskuqLlviy7/06TwCgrT9/KYyTMQqoE+j2VAiKFhAYpAmQFIRAQAGwIL0BjHFUXjGZb1QAYYqqbHiMFQwrayEUAbjQOPCr8aJ8bfsrlYLC+vShFCibqlXzLQ1/XEVGyzpzH5RdXE5w8SC9g/af3wvZUl1Qf9HiF8HLBswHH8ECb2wqam97P65dydTP9REJcXzp4HOHyMaujneDyeOkAQkGU5AQDeoGvaT4cH8CsA/GtPU8qtDNGWfhHP86fTDF5g27YeCgX04dHhGxECf+rv6urck+E/+XnNqaeWJALuNcGSoi/LI92ezkde2GXFzNJLL16aLvY9KnNsv7z6h7MKf1Tvp8d1WvBzxePEVghC2DZtmrVAgqJoyU7LuomRxVOMpBI7aeqA4S0Ly9iUgS/gGtcTX/GFw/fKkSTgZXhI3FQ+yCaIi0tLNArzDKaoFR1tTQ9P1i6Z0BeWVBOIEbAI/OFgT8v3nTGBvMq1+bm5p6USSYCAvVUQmGMbGze0ZsJvb2j+IyAuq6491Nasr5umfR4r8JU0w2xrxJJWlD/TiHpRTaf+MjDQ2b8rxYqLq8pthE+nKPp4m5hfckIOl9f7z/HxyMs0Q54b7OramqlBFpx5Zmkfh39WdvCCxSPjg3nhQTm54YkndlSM384nuGLZtaQk5xYTwC2hntghnY88stvC3JnMnX/rVSfRfu8rsm4DPUkdlqivX5/Jxc9MeDs0ZVWVUQgYLwRoRVfHvgFxbmm57vcH6HgyfcdAx+ZbnHmL583zJUeSd+eH85alUylAUajbssiy7u6GKZe4zUTnzxzEecWV5wZ8/scjkSjx+/1SMpkEkkt6U07Jj9BIer2z8/2M6gdXVMwt0mzzJIDgzZimXKZpigDBFjmVekkA5r2Dg4PpPRlg/rlnHjYocPfB/GCVzeM4x7IJzgIUMm2YmIjJgUBQHIqMa9Aj+g0vX8UANOgzxso7r9o7EJdcd9GpbH7olxOaxbJM3rcG1q370/Ydjz3JnMnnheWlEWJTfkLAvlrYweLqGhtiZCLI/rin+YNrP5IL5efXcaIEHrVsa6lzJZvn+W5dV89oa9u4112o/uPhRFF59SE2QL9VVTXs9/i3LX5SieSbwAa3Dgy0/S0T5+yGBks5BRfl5xX8dFucqaQBxzN624cfbC/1tFvWdeefUTGWH/5l3MMfakgU4NwSSEZjjuG3/SPLMqBZHqQNDRg0AJU5eaB9/RDe25/+4puuOh3n+n8dM21gqtxRyY0b38syiAmFeUAx1A86Nzfethe23e3Qwop5xDkg0U3z5oHOhjs/QYhq53+hKxGLlzKYAgzLjBqGcnBXV1PGv5KTkfkzeRMXV80rhwj+l2WbCziGH7VtMmoZxk8tNfpUtopEh0K1EubNq0VJOAkC+/91Nv+bYf/NLs5+8D9C7lVWQfBIT1n+yX1jIy2BUCDIiYJ7YGioVRSESkPRhiwAbJfXVWRNRK+rHsFPvlFf/6991ik+RTeuPNkIup4Hbq9o6dwXx954491sgjhUXDCIEZdHM/iKre3t+2SLLVwwi/CiqGEKPtLVvGH7m3gniyzBpZWdL1MInYAxBi5RUFRVObyp6f091g6ZrFk/ExBX1c4/TDWttwiBtGkZ3zUt9KfxLS1OobusP2U1NSW0Zcnt7f/qpZHBA2uXLxfFfNciRTF6WA4zJqYwwVba1oGLtjBEDGtDbBLesibeuumuvWvLVV+PSo34CVbY9/yEQSRMBY9PvB16Haw9fcfhSgYyfypJ5UFzoomE6uUYZmVfW8tDe8tvV+OLi6tVmheQZlrvsTz796Qsxzle8BuqkYA2sVlBCAHLJqZpruJZGpu6AURRiKdT8je6ujZldR/5MwGxP6fkC4LH9Y5TybJ143sZVa/ZF4afLjyLbl59RsJFP6NzImaY3G/ERwffyOZRtrcgbHm9OYii6NWdH37w4L7Qu6yyhhAIgAUpwPHitlwLRVGdI2gAId4WigX8IZCIR4FlWYBjqG35GgLLP9netv7ibMr0mYC4uLz2KELRf02n03SkP/P7YdlUdDrxyv3eqtOVgOsncc32+X3F3ykj5OUNl1zyb7siU5W5Yv4cU1VMTFP08t6Wpqz3qHbkWvjFL74YjUZPNjUbqqrOcBxnAIBoWZaTNMUgjhNE27Y1jDHr7DxZhq6YpskLLPNcV/vG86aq267GfSYgLi+fe7AO0N9ZnuO9nMVsz23NpiIzhpcTTlDqEj3kfXE4KZsuKXxcfHg8q4cdCw87hIyPJQHHctd1tGy6b7ttDj3mlECUitziyQvUpgkMxBLxPggBJfFuVvS48UQsavqDwVzTMjVd000KwrSZNgGNIQKa9nzjr3/z9L/beQkGYK2TX012zsv4WI5GaSmXj8QNoiDOgoT8sX3z+qze0tnnIHYSqocj6ToC8LvOz4mbM7lPa4A4Y8C4F4KW3bLytLTAPaHygptQrhMSkfjr2QwnwuFwwiUEXAjj1e2djTvCicrjjy8Mzs3/fZKxCuhQMJBIq4DHLsBxAoirKlBNA0CWBhTPgng8DkSGA15WAPJIBBRJ7ue7Nmxe1r927ZS6NdXMO/SDZCq+EBP4qy29rWfvhfn+beg+B7EzY0HJvCMoCv2dYhi7q2W9c+a6x0YwhYWlhzESF+3eD2/oFl63/FTD5/2ZKUlBC3OLY6OJd7IJ4tLS8hS2aJHC7Kq23oYf7+z10u8cf7ghsWICwLSBoAg0YJkGNiSPSKm2ZQIGU5gTGDmRTHskgQeqaSPdVHMZbrTl4Z91TBV8ecXlGzmOW0Ah9GJHa1NG5RcynWufg9j5WbGQOI/nxPd0XUe9nV4agN23h3UEr6ya8xiF6YtMYv/BNlLnd+9njVTyb73mJFwQfiFpQhHawpeil132NoBwj1/sTJ166BeOJOPDccAx7I3NrRvuznTcznTZTBN10jfDBcUTkciYgCH80+bGhqwWcdnnIHYMU1590FGKor+GKIof6Gnc5e5EbW1dsW5rsyGCz5i6neccJ3McNyHL6av6t7S9MBVHTNMxMHTH9UtSLPuwYth+l7fgjGqEfpfNhV1OSXGKwy6RQnh5d2fDPlnYTda2+SUlH9IMM59G1HOdbS0zb2GXXzHnSAjR284qtb+jwUnE3rEnGnaKpDD20aZuncnz/FGyLAdDwaAaj8V+ranyr4a29v55sgab7vSeH153mslwTyqA5nl3+ER5ZPB/shlOFFRWpAmheYalVvQ275vcicnaeM6Cuu7x6EQZx3HPb2lrOXey4z+N/jN5EwcKqw4LBAJvKapKb23btONNnFNU+XVRkq4M5+Z8s7e3D1iWASRR/I1lmY/0tTe/ua87/jgndpt55ljJLY1hemLzuw9ObdEyWYd4vr96Sai47KWBiYTFCIHj4zn+v4LTs3fYUTSrSjYBLbAUs6p386aPxcSfKmt9PdrVkfri+sXUG/WfHgLuyQallTVtJiKVgsD/V/umjafviX4yn+9zEBcecQTPJpRF0Vjqdc65sBU33F6vpdtYfBRBcoqsqn5R4ollEsOyjYuQrqx1FNhxhWYy2kySdv5FSw8fg+h+mUF88azSWs2Qv9eRZH+8ZPNmsvP1pEmy/XTy+npUYCe+nQL4McCJPkHyn57Psr/NZjhRUFEVMyHtYWjuiq0tH+w4dj7q7LN9cS//MMpxHxkxLUYGZgJR0A6Gc8ThifGUbui83xOwUtGE7hIFUTNMmZY4KpFICBSion6fS0iMTdgII80d9PoHBwailA2w2+9DETWlaprmyXMHdFHWX/dErWfXP/SYk50HSksXcywvr5d1dW5CkZ9JDHZfkE2b7nMQb9udqKw5nKKYd03Tdpp4L/3fjPd6OR4rDQaDgOFoMDI6+oSqyQ9GBgf3ee7pzsarPP+MCjWY85wd9tVpLoqhBdqMjQ5cUC6PvNRcv+v7ctkwfv4Ny88Afv8ak+EZxLiOLsDsumyCOK+ikhDEA5qhvrd188bbt8u88DsX1DI1Bev0HI9nAhES0RSIKKzLqmI5e/hp55QtkAMMwwCJSATwPu+2RC05Og5yCovA+OgooBDedgtaTiSMUG6O084KEAZbGkUwsWzgJhQIpsn7Qmf/SU0PPbkjKb527uF9CUUuwgx6bkvLhzMvJq6cvfCIpJr+K4SQwxCpHMdxajLRzYv8K4lE/L9HB/veyQY4JsujbMmJs8Yl10+l2aVz2YpwMJKIAjMSAwHMvsWp+v2dN/3o1cnyzIS+9NarTkp7xDUm7/HoOnv0LEZ4J5sgDhSVbEG0mM+w7FUDLRt3LOzmnnVRWM/jb0+6aQiCoUNH44lxYCGNE4Ucw7aGdMv0YIgRy7ApfyCQOzI6OmaYOhbckiudTI24JMlH2UBX03IKM1ShqimDNKZ4xdQYwNMTkIJ5jKLLeRazURxJ3rb5wQcnttujpGJOs6anazCDnxvo6px5IC6trDk8pRmve71eKZ2SCcMwLwHLfry3s9GJe/9jT9VF59YMQ/OxvAVzD7ZDrh91trd+pSyn6AumolgWIM3AMt/Emv784R/0fZDN8KLk5ktP0fMDayImdEHsO0GjpT+DLB47e8J5PZiTSniOv3yg7eO7E3XLluUBAMbbadVNI4+BLcs2GIaKJRKWL0QhogkQOf9PkmjKjpiEz4exeBz5TdO0RBODOACYoiznYmzUTtIS7RVUWY45/8+k0hRmsJWvi7jc41F/W1+/I6d7Vu3CdoBIVSqZeH5gS/fMW9iVVM47wiDWOgAxcLld340NjPx+ZKRr9D+G3o8mzj3z5FI97HleKsw7Mq2r+TZBlJsTLzAIuFjhUCHrFYGuqe+CSOrCyPX3Zq2RYfHqC5fAivyXBlVdZzn/ccEx5d3evUzv3NmWwfz8KMWLXppnl29t2je5E5P13azaut5kKlXMcuzzPe0NM+9NnF9eexRA+K+EEHqoq8mp8TUtapmVXXh2SZRDL/iK8uYbI2a4/8EHtx2pVt56/QljunyB7RVOQW4eAEMHAc1+Skya9zXWP7DXcXv+DZecpeb6HrHd3oCu0Rei6PhvU3ub4rkTqjyh0CgtiqLAMcv7WtvXTBZw+4K+orquSTfz2yIKAAAgAElEQVS0ORRFrenp2JTVutGfycIur3zuwYBCf7dtwo90Nn5sn3hfGCxTnk44ERXoR8tnzz46Ndrrav6o7kRtfT3TXF+vz7ll5W0xHpzH5npLIvFYQsDMWlY1n5SHI98RGa5ajic4t8TzBBIYSaZitMSDhKpaLKYsSrMARdF5JmWPKUqauDCPaJbDCcukNbeIPPMqjxxPyBbN+LGxufFdOjWueqEtyxbII4DqByYByCaUwPJEScg0jTiWE3lzIj0BMYUUyzQtCkDKzfOQThsv9j33389vP84PlpX0shRbAmzrkoGuj992/mRhmExttTd0TvGYnpFEi22YZRji3/R2bPz23vD75Nh9DmJHgc7RiTpDt99zbscOSzQDPqrQmE1FpsJr1kXnzU95hacCwZw6bUJ1t91778fqTsy7btnJUZ6+Uffzh1oSC7wuz3p5y+h1+ZLvUcswaiNj48DnkQCkoAPebdebokp624qeNmxAYwoQGjlgBC5CA9UwgYowUEUGjGECTMtJXvQAl2GAcDoCWFsDKsUCm6JBMiEDj+gGyDSBpZpAwCKgKArE1ThgJRbYNgDEUIGIAbAmkg+bo9qtm3/xi20LKeRz93oET5Hf5bqsq7V5x5X9I5Ys4WGIuSCO4EjctglkRDdDaCUZjesc4kwT2gLmKEUhpk0xdEDT1QhDaEgsw8PzYlRW0xizNI8B0sy0ChmBRUQCruGx0UjQ7QasQcqtWLpTtPFYKeY2v/bcc9sqCDlfnP9574MPOYadY1v208O9rd+dir92N2afg9iZOFxaczik4V8Nw0SR3vZ/FV2YBs+si84tG8X2r4rLSg4i43qw4f77txm9YtWFlQYE19A+6QTVzeVrPAJur/cXyuDEs0Mr7/n7l25eXRRVlRyBZQzD1AVCYzOla6bgcUuyqaYRYChsmAgTlDahIemqYbhsDClGZLYaqSQIek9KsczVvD/sJiZ7DZyY2CQNdadxIm5AyaumLZuBCBEGI2KkdA4CkHYhidI1DUb1tOqVGMEGtGFYCcLaBsPJya3Na/+woyq+lJs7xtGSwDHUyv6u1p9vN/XB3z1nVirAr4lyyI4hVCP6AjA2HktRAGGaYRQCgTcdi6XFkN+gWSYvmYwP2iZxigx6jZQyAgBx+XPzpHg0GrE03YUpOg5o2gshVC1NlcvzCiuVsciI14KvUX2jVzR8BGJn/oKauR8SQ59vW9aa4Z6umRVOOPVw44ZRCyD9N0KId7CjZdrExJXfPesIPSA+klOYXzcxOOztvueJeOEtl1RFFPXecFHBbA3as8OlRcA2jZvl/tFXcyyl693V/4qb9+bJv/XmE4Si3FdGZAUZBvUlNbEtiy1r64RZiw42JmJpyi2J13Y1rN9RAeiI884rwCXh1zoS42E6J8dNSxItshxIJpMEcgx0TkxphAlDUzA6HjHcPjedNgxgA8uUBBdlKrpGQ8g6mUqqaVoIIQxNBIgFDK/PTUeGRxUvx/F2JP4WOxb99sann952lSu/rk6ASaWD55h8jmP/0PSP97+5N/b7zMMJZ8LKhQtDhqqe6Pf76Y3vvLPtVvJ0eJyFXdqNXuDygnNcXu/VQ+ORfBfvqZctE3MBD0hr2mMByfM7biLe2HBV/S7rYExaDwJg6Pbrvm24XM8kCRFZj//ktNHwB3DJv9e7mDTvjwbQgeCoO5jr5hn+yv7G9TvexM7Hx557rrj9Z/5j/J1k/d5epvejAok7f1a37ARhwxO//bcSCE6oCEpLqe1FFXceU/+/R9j1O30xq+Ye+mEsFpsHEXh2tK99Zr2Jp+qIz2JcxQVnFo1Q+i+FssKDYcDTNTIyyvtc3vKSgqKGRDz1K05HzzB6Wt20qj6WTXkCd954qiFyL8kAIUp0f0Prj/4lmwlAwZKSMcBJQcMwl8e726ZFFlsot6yRotm5LMs929u56fxs2vMziYmzKXA2ec2+9MzSGOt+Mvfgucc0RQdBqDAXSJB+k4mnfiSMjv9j/XX37YvuS1C6ffXp/qKSF0diSVsD9LEgqmT1elJl1azRhG6FPEHPyo4NG/bJbefJ+iFUUtrmEVxVFIAvt7Y0zKzdickq+1nSL7zkvCPGMP2wLAo+PcBXuALe5UBJ/r9i5LL/ccVNkX0iS309CtGp0xSGeTRNKK/bl39GzIa/zeaJXVXVLEUhgLNs+7Kh7o7/ePhWV1cnRFV9va2btXI88czY6MDMSwDaJ2BwClsvXy4NY90rUK7I9oOKSc1VX4/mDg6uYgK+KpOlXyKaMth4194fZuxJhqKbrzhDC3rXyBRP28D9JSUSeT+b4URBZQWxIAcgJjcNtTbftbM8tUuX5PZjoGMdSFEILIHCJG1YFKCxyUFEA4wJMg3TZjgG6apOEEbEJgzmmLRlWgw0KAJpw7QRxULTMIFlQWJaEPGskZYJ5gjBvGHEomvXxneet6ByXgdCqExV0s+Pbe34fMbEzl7j2znuQk4SvATDUyJyQsc+39dgKG8xr5p/FnqHTtrbQn97Al+2Pi+7edUJST//jCl6/ZrBH6WEw+9lM584p7RsAGAhn8HUlf3tH/5ku9xVp55dDityfj2EjKAUzi/VIVKcSqzOIQkhJAYQdLbLbKd+MnLOWiAglm5AimWIoWrQIXLKe1mGSQzDcP5GhpKGACMCOQ7QFIUZRSdBE/yFdPec0/DTn+5ILSiefXAjIdZcwzKeHe5s+vzExHVXnl+hMPQZqksI8qHAITImeUlTd1M8FxoZHB7Abk8O9Phpjwl/G+5PneacsmULaPuQDwzcuPIkmBt4PG6TIKI9J2nj0dey+SbOLa4YoCgxn6XZFV1t63eUdj3ovEsLEoXeF3rUeEAqLZ+b0rQETTBLI0wZhhG1AHE5Byo2IBaxbIQoDAWOR/FEnLAMa9E0jVOJuEFh2uJ5npbTSRNjhGmOpVTLsmw5jcIuny0mU38Np/Tb3r33jn9st2NhdV0TRcE5ciq1Zqyvdf99E1deeSUrucyvjiTjCylOqEnalsTnh7+gQMCYhLgZkQcaJCCtKqAwv2BwcCKab9EMcFv4pcTF15+ZyS3qfQjOjFmHbr12SZKl1qiYBhzvP04dj63LJoiLSqsIoiXA0My1Hc3vf6xSfPWVlxwUwdj5FatV05oKADYFjD2KaUZsw5AYgXHK+iQNywizLBMnBGFDVwQIqVEAbbetW5oNTAUCygtMc4IXBCGlpSmbZeLIsgOcBRTRBEqJqTa9/fjj0e1GKa5eOGDaVr6qKWsm9qdwombZOXk45P/quJz4Zm5O3hfTCOQnGQwUDIFKCMAMC0wbAI/kAjzHASOVvk2NxdZNXH3ba4H7v39DRE5eDLxCuMAfvjz37aYXdlVbOGNkfYaEebdf++0Yjx9VLNorSHln1mD8+2zmE5eWVYybFB/AFLxiS0vjPikoOFlzlVbNb7IgnGMY5rPDPZtnZjjxlasvL4khME8m1kFIZIxxNTnHYNh8FeMaweWWOUBXUJhJSeGQu29k8A2vL6gYSvptSjUHgG40QBtZZlwZHr7rrrHCm28uGDVid/Dh4PlUyPdLdXDoXvmGe5xqi1m79j5ZJ2VM7+xOmKOngnDg+THZIpxQeIKaG/xbNmPi0vKyhIEZF0ZoVV9bS+Z37DJWYnKEzpV9C3KNsqqV8ZL08paWGXDHbkH9Sq8G7ELVIEKhL7i8f3CoK0XZtbTPfYwvNzcUUVJAwQQkbQMEQ3mAA1S/S7Fa9PH4Wy5E2ZaqvG4q8c7N9f93M2Bns5Vde/nlE250WrC89NCBntGvH27y770xzXvLfUz+G5efJkvczzXBzZvY/y15YiKrBQWLS0tiFmY8iIbXbG1tf2BykMs+tbMof29TU6NpgRoE0DMD3Zun3xbbsdecKw4QXMvlBi9P2JZNeT0XpABxzqNsSrGRadkgDS2QUjXgllyGIAkJzHMPpNV0t66ZGykVRP0TejzThdms763cEvXRnvLaucpAQ8dRW6+7vSv7pt93HCtWXXqKluN5RBU9BSqQFs9is3vHLr+oMGZRrIem6Sv721t37E7sO432zLl89kGbNNM+iJjmmsHelumzsPvqVcuOGrS0k+MshHGKHMoFfSWAYTiDwiHCc8DpcwbSBoAEbPIFAz08pNqt0cQbrGmnKVUfxQYcefuGG2KTqX5TefE5J1K15S/B3CDrVLIze4Yua73prn1zMLFn30yJovLma04ywr6nxy0iQEo8LhUueCub4cSiI79AhseTgELghr6Wxnu2Czn3mGPCEwK1Cvu8pXFZCaiG1WcR07YsLYwoashGEAPDwozEA1M3WRs6u8QIWqqmeQIBMz4ygpAgOFtrUI5G81iO3er0hnZLrhxM8fHkRJzkuFwSVtW38znuqXfXrt2WGurcdiZMrAtBnEuz1G/bG94/eUqG282gKR87L66vp5SBjh9Y1SW39FoKkBkEWLf7f7sXQNPt9Y0ouvaGSPHrQTKddhH8X5svWj0x/777xIZrr92W7jjVp/Tqy29V84Lflym8OYcTf9h1yeqXJvMlyGTeJfX1zNp9t10HK+/4wZKtpvJjnRd8Hm/+2RWEZLUCULC0OGLYrCTx0oqBto07TuzmH3tKDled+yrODZYbiA6ldQNYyASS27WtgKBT0V0URSCrirNx7DRX3FZbOBqNAo/HAzia2fa3Q+d2u4EsO81lKGBoBuAwD7ABgA/RIMAx63s2Nlyw/ldrNm+3d0nVwiZdN2sIsZ4d7muePuHEkVctK5ZL838ZkbhDIthg0rYFAEbJvEDu2yitPsrJZltRf6I3W/Hq3OXLa9oZ+zpcWLhU9Ph/AaOpW8auuy4r+Q0Lrr22athMLrQknItFusBCxCSaZUmW8AcvEFo31WcvCYi54dJvo1DwUVUDXm9OxZn5/Vv+kGkolcmX0F9WHLUR72Uwe/loe8Nj28dUHn88y4viibpAs7JqAdrZ8bEhUU3N6b+BTUIoTVV1mmEQhNAiACDDMCyKQgJDMabzbLvCn0pBfzBoxGMxiBkAGBZBymZoIhu6ADEtADLQsPZXTh+WHQvt0soFzYpm1DAUfnZrT8P02p1YdMPVdfGAuAjm+H7Ul4xKrmBwWzd3M556p9gdfJqOJobar6v/QybG3xNNxfUrzuvn2RWmKC7yCd6v5IxF38mG8+dfeWVhD5AfUX28P39W2awJJRGyEEA8J4F0VGsgY6lXygF/X3N9/S7b5u5J7k98DoN3X3MWm5v37FBMMT2uolOiW3uyWtq1csF8NaXbrG2aV4+2t/5o5/nnH3us2PDaa7v8NSxcsoTfVelW50bIu7sr6bpkCc6k30jZrEV9NKYKLct6tattw/QIJ3bluNr7br1gi5ZYqvPUlySPFxBigVh0HCyaM781tqX33gBBfywdAxNT+qlesgSLZa6fsfn5p7n9gV9TMeuhzquuaZ4kgD5OXl+PKiORg2I8WBXl9XOF/BBQAAG2TQBtYEsUXXginQTOZrWf4KcrGe7uf1xxU/tezUkAzL/zmjMSyL4nZaJwTkHtRe5Uam3nVVftVW+8nWWqmFWdTluARxheNtDW9h9PAKqtrZV0zL+fiiu1PMuu6enYOH0Wdp905lE33OBTCLFJkXvZqCqXmDx7TIKxZlmYQGSaKTqprKtCwtINq+6cdNOZuT9cubjDSj7BBYNVAuJ+lJuED2y8vn5wrwBVX49ckaE7k9j6Vu7cUglh61krqa8nCTNC20CWvP65/Xb6W3zQfWYqGp8o47zXnTGQeHrnZO+pzF94+9XfmbDtx8RQvhuxnq8VGuTNbB525OYVaIDlGIZnru9raclKH+yp6LnzmJLZ87oQoMvNtP6zrX1Nl+4tv53HT3lhl4kQdXfclBf1C4/06vEjAYdzkW6Br81d9MZoe+LYyTot/9pLX9BypW/5Kwrc1siwt/uSez6WJZWJPJ+kybnorHDSF3wgb1bld5KRyB2utPZE96339O1Ml3PNivlGrufHKU09ujSQ8+dgeuCU3VxRcmyZ0WFL4NZrTrIk98+gIIUJcB0dGxl4O5vHzvm5RYOYd+VZwL5ysGd6bLEVVta2YIJmQ4J+2dvd8J2p+Gt3Y/YpiJ1Jj3j+4X9ulsfzZGjlBzz+D8qw+Oz7p106qUTthVevPD4e5teOEBUUzir6k9y99dz+LNx1y1l2fsUoxTxdVXfQUSQWPdmTtP6yYaeqNduN5r52xa2u4vybDF151w/R5SiVWs4AO4ghrAQ0HbUwwopJREJhmWco1rINU07Jdl5hgX9CTqTjE0lQFSoAybSs98tJnUiSH0nSQWMTKdMrBE89aGLsj9la/Doy54WL+jEvFViWdtnQ1u7/eDjhyFRePXezoui1LEU/2zuTjp3n37LixETI/ZteObo1f1aV5MbMjcFI+r23v7u6YTLbYguvufKr0SL/60xewOZZvMLYOPZENhZ0pWcuLY0XeF+U8kKHpca2eKP3PLHLt3vZNddcjIvynxhLx/pCLuEbKSX+KMWTw0diE2wgJx8YBAKLYAARAgDawLadNFtzW2wtuXxAlhXAOC27oQ1UQweIZwHNiMBKqEBMGl8Yven772X6Fs/kDVZQWEpYXlAsQH6wpaNlR+OZTMbuK5rq2rpxQoif2NbznW0zoKDgMTetCA9a6R/SRfkXTzAY8EF/bzIav77ADL68YdkyczIAdoyav3zpK2hu2bcsBj/ttczHWy6p/yAbxq5esqRgJNf/JBPwHAbkVO3i3rGxXdVcK7hi1SpYmHdnihj/tLXkBf6A+L2kEZ1dUlF26GgkHrcgtm0LuSCEExSFOIqi3LZlJTVdd04tEQAIQUjShBDDtp0sXWI6hfBpxXiSH1Mf7brjjqy2iy0srfhvYoMTndxf3TDTumG4IMCyZZqaBQHLcRxlWRbUDF3mWYYBAIgAgLiu65RTCB1j7OymSTRNp03TtDHGzueGs2fs/BtjTEMIedu2484OHKYpDABUCAE8Qkh32tsBG/owhZw+TCbDUM6+MrZsA8ei8a+ODHT9NRv+284j6+HEYXesCA9Y1uNMMHiywdNQE5kPsGbeXAy1de+fU59R8/GdFaxbvey2EQZ92Vc354hUMnm239D/sOGS/ytUtzfGqD333OKtPLi95qhDzu3s3HyfqBo/3nrvUx9bLNYur5dajbE7g5UVSwWX8CswOryCYhiX3w1srBoHUwy9Fdg0BZDhM019AFCsi8E0ZUNKU9MKyyAjDWjEp2RN0ZPplAmxgE2kWEBDTjZ6Y1f/lky2qCajZ05OUQXFMddbpnmsx+MNa5rOEQhs0zQTgCAvzbGmZRmUYZAEg3g3IdDZciO6obMIIkxRVMK2bS/DMMS2rBREyOWUHrMt24YIOr3pnB51imEbxDTTFEVDGiEkA4AkhBBxPoM2FCgKAedL4TRqpDCOURRa093RtHIyumRCm1UQL7j24gUTXvEyy+9aRnE84Fj2BQjsR83xvg+m0pn+2CsuKrNKCrr7sQ648oK0PDRxVOdl39+YiWKZ0FScckpOotB9h1hRcFHa1gBD4DI6Enu1hymMOAut6ktXFfQg4zhT5M8N5eV/OSiJlzVffPHPJvtLkoks2aYpLCzkdd1eBCmON0zdQ3F0wlQMbBIT05hVbGCI0EaG8xKGEHEEAJnYJgMAhjRD6ZZpiTTDapamOb8jtEFIGkHEA8u2IAVtB6Qm0JImUSmMCLIBViAgEkJYA6YJbKeMLwVTtgU4gWWdpkyJcS3enBwczLRdccYmyRqIF99w6WLNH/h1uy5Ttsj7wy7XtUjTf9p8+e4PCA5Z9d1ykxX/xAl8Z6EtnPzJ/eNjViw/JF3g+9tWU5bpguBDOD7ywFS+DJ9mjfCKcw8bE6jVOCCejmlWESDDh7xBoMhGcjwuuyDPA6c/Q0Eo51V1S+eK3hvv7s3YugcIPxML7DWInTS7zurQ6RpFX6yydHW4pqrA1s2fmYMDt37afvDBqy9daOZ5bkrx7Gkun1dPDY59qePau97fWeuv3H7DFREBPZJm8ISJ8NH8KGjNxoLuY5ZdsgT7wvyx3pryJweTCRQuLs6diKcAZnhAUQyAhgUCmH7THBq+mU8lOpvufGhH9fPPxEMHJtmjBfYKxOXXL/OkTbJaldgz/zc5vbqoqADoY9HLpQn59fevu323jfsWfe+qunHbvlJ28WfrQZEGHA3yJM//+PrGT33/qn/FzUfcePXsXhJ/wPRL3/AHA0/jPuvSrAN4J/NUL19+VFxgAwmROspfUPgFJanFoKY3SDSewBOJ33TfddfendTt0RUHCKZqgSmDeO7qC4pGWeoC4gvcCtxukF9RoA53dJxQmFY2bbjmgd3GPbNvWH5sjGceAIJUAvzuLcNadC72SaDEH+pkB2PfaLngum3gr7jpiisnJPA92ucKsZZ91tZx/qVs1ivbncHqli2jt3i9HBMTLIGNWJ2BgPFZzDtVBx4YB8CUQFy3bJkw4FPvjgvi1125xdUIUc+KFP4jGRn5Y/cNuz5Jy69fJkDELvPmFywbTSRrSmpqQffY0A80aJwDKViV7wnEtP6Rb25Zdss6AAAM3rbi91JR6Pi8skIw1txxROfyO5y91APPJC0wZ86Ci1RdK7YM453e3s79riegY44pgbjmojMOH8uVnkcFuRWUGABAs04OAtDQcPG1PbuycWl9PTeBxy8zXeLtAEBh3uxa0L655QTs9b4JTOPC8fGRc70+3yKB4DMHl3//pdpH76jvnhhe4s7x11i6elh4Qti0L0OJSeJiRpHX1h70tqppR1I0/n176+ZvzSjhMxR2SiBesHKpNxGSnmJKCk+JKDrAGrnCm1Bf3NUNi5qVK/OiLnzxKGOfI4QDVTU1Vf2Dm1uXsrH0P523duWdN9YORSdeLJtfM290ePjUUZn7TYBE39I4XF1cURJVRke/1nPFHVsy1OcA2ScsUF5V24gQmsuzzJuNDR8s3h8NNCUQO4aYe8vyY7ci/YdUMHCowHJ9Xp1c2njlbX/c2Uhfuuraql4R3K8GxHkKA8s8btcvOGL9BiT7Xtt5q6zyuhUPpr3sSouiVlMmeY9mqHViSRjoqeQaPJS4eh9eP4Jzjzkmx/b7o81r913fut0Bx6ndbDHMIW2bNmW9BVo4PF/kRfPccF7oByPDI7k0hd7saGs+AOJPOmPe9y4/Iupn12ksDYqKigaGu7Z+YXDlPX1H3nOPayAyMkfH8PoEi05mAtKoxyM9HETca3Z/X/uGT8TNB115+QPJYs9qg6XvVMaiOYGcnIsGzMRggBOvy02QN9+/Pku1gT+hwPxDDn8oktK/ydD073sa3l/xWb+lFh18+Co5rd1AcdwmRYld0d3SstsdncnIVl095xCLwB9CCh9NCGFSqQTgOWZ1b2f7g5PhM1Nop/wm3q7gnLuvfi0moa/FbRNgxDzt0vXL4yr9dd2yVyKWKmVcfEnY6/uJmDaeDIwZvX+54YZ/S7JZdNVlddrsvH9uHujrpgmGOTnhMk84+LY8PLqsLE51ZDPDy5G7au7cbzI8e2U0lv66AVkQ8ocAlZZPa2hY91+fpePmzzukLSVr1aquA5dfiggiu27ju++csnMD98nIU1Y2axaB8GHTMo/lRWnbca8kud5LJRJ3b+1t+81keM0k2r0G8eL6pdwA47/V8rquG4xEQX5u4ctpBE4ZlqMgv6II6PHED7hh9Sf9q+t3dJf8pIHmrlxeEy/zNo9TNkA0A5BmAZ9FnxBqHvzz7qr6HHz0kd+IptXDRYt9qeGf65oyMXplbe2caFJeznPico/HB4bGxlOAd72mq+ojqd6mNzLhkU2aRQsOX6ok9S8wHHdKNB0LYhoAwcX/Jjk2dp9t2x/09/dn1Fqhuro6aBjWNwTRVZ9IyWVutxfIaTWKKOrpxHi6fny87WMNdbKpw3Tgtdcg3hYfr1gRjtDarYHiwksMQNITpi54y/Ob4snoT3KIvYFV+j7c8Cnl/OesutCfKs4ZTLpZ1kmFgin1lZCMl2+5efc3QHLnzW4wAZzHpKleF8PfTmPyWlPT+l1lg8Hw/PmCZJJzeEG4Ja0YhbquA8sCTTTD3q8Zxh9HuhpGQYZ3xbLptMMqD3O/3/l+YnblohMwC75jAfsUw9QZGsGoaWgv8zz/p8bGxm0N23f1zM2vKLJc/LEMz10gy+lK07bDLMv3JpLxl12S+y/tYe9r4I03zGzKPB15ZQXEjmJHrlo1J82QZ2mftIAW+A3JZPxG2rA+BHnJ+KcBeNvY737X1ZfLvQELAwtMhkbxgZF7ilRwX+tdj+62nkTxnDmv2AR9gyESzWLG1jTlbzxP3bm5Yd3H0vwKqqvPFwX+Wtskc1IpGZQWlmuDgwN367b9zHBv67TJg6irrguaIr49nkgcz7JssXOrGEIox2LxCwe3dv36k+ApCZbk0RJ/Bye5LxiLRLddocc0ei+d1m7p625wbJDRLZPpCMrJypQ1EG+fuHTpyd7eZ16ZdI+L8kvPvUHxslcLAW9QkRPiYP0T/9bo5JPKhUqrFgjI/VsAUB4hFqZYZFnQfM0Q8GloZIR4CwtfTaVSX3XqItgGcbzaEPD4Vm7+8H3nOvm0fQpLqn9OILiQoTnI8JxT+yFl6/op3R2Nf3GErqioXcoy7NPRWAxI7gAQJBGMjY6dPLi1eb+Nez/NWVkH8VSR8aXlFxTJHFxCEOj54P6nXp4EHzhrzmHfxhj9MqWkaUHiga4pH0CKpk3TnIOc+xaQ6jUN4+Ut7ZtWT4JvRqROsbzOzs6s3VTePml+SeVCj8vzU1aQDhobH2M5mkn7/f6meCxWqGlavt/jJQih5EQs/ut0Srl7ZKSjOyOB90OiaQPivbXtQYsOO2dsfPwYTnSfqhmmCyMKWpZTxUZsSKUT3x3qatywt3N8cvwRXz7y1rScKgAYvECZ1Nsbstwptbi85qu86C6CCDyFARX9128AAATfSURBVASKogDbsgDHcSAVTz7HccLjnZ0b3822XjON334DYsfwzluR4f0nGjY4S1HM4zTdZCmKjrM8d1tvyztZK3E6d+6CxQTaSxVNOZ93C0BOpwc4jl1j6upTnU2dWStuWFBVtYCjpQslSbxifGR8G3gxpNrSiny/Ktu/3t93HTL9Mu1XIN6udKi2VhJV7nsmwct4XvRatg0wAqMpOX7p0JYPX53qPqxzwkYx/FXEtpZaljXHhgCMRCMgmBMCxLKBYVgAQ3wOB6y1zc3NU2694K+sdAuAWimKwiUIUvnJZBLkhcMgmUxfHVMmnhvu7NzWqfPA8y8L7JcgLi0t5Xp7e9VgSV2emxeeNXSjDkLiCwS9JBEbfZNA86ru1sbGTEFQXl7uoTnxW26v567BgcEip9CeLMutlm2uozjxScsmF/u83rM0zeBM3QAsy3zIYvq2VFz9a2/vpowXuY7cCmHzeAbeb1n2qSzLAtHtshKJxHpi2it7O5rfd7p4vvE52DbL1Df7LYh3NkBx5WG1PM8dpqSV6xG2Z1mGClxuvlVRUndyAvtey6ZNn3rUW1JSdbYoCRcBjBZHo1EYCuWkxsdGX2V54aGe9uYdjVVKZi88wuv2PKak1YBtmkWmrjsVIzcSy7oHY/B2e/uHA5/mmNLSqgUA4eMEt/T9VDLptMJQdMNsgIj8squ5aUfzmMk49/NCu1++iXflvJr5X1wEwf9v7/xBm4jiOP7eXa73klwuMYM3VGpCiin+aZUW42SL4uKiOApOOtiCa4dWqhR0cdK6iGAHRQfpIA5FHURUpEPEpaJ4YAkdorFJm17u3r13905e0KLFwdAWeuTdeu/P7/2+n3vc+x78zjtGKb0MAEuqSAHYbTyDAbyuxzrerT+UZXp6MgHxJ3YaxulyubyDlzx1HOdlwNi0FHiP+U6/bh4pnz+8m1KyV4rINxljOVmWmuVRCcUfJAhmXKd2408no7+/XykWi152z4ERRe4YJsTdF41zS42a2CWTUiR4vfBp+3jZ2/WhaBuIfwtwaGDwXMO2p4LA1wBkshKBzLatOwvmlxHexjCMOFTQFYTQGd/3c/yjA0KoBiAc83Fj+n/stEJhaNdSrX7KcZzbiUQCUN8DfBxd1+cQUp+/fTU7wecaOHJ0nLpguFardvJ23H3QU4lH1jK5aJpzLZc32K6QbXVcbQfxr4TKmVzfeYSUWwB4qktws1i0pmmzlNIhjDHCGMOuri5Q/f7tqmXBqcXFef5uy1oRhO+01WV/VIrIowGDuoKize6rVuNuKpXsDBg7aa0sg1hUBcQlczENXWvUyy/+scu3Mm3btW1XiJtC9/b2xis1azKdTl2wbVunlHKQm/eIS+5JkvTE/DzP3YwNXdn9BSMuq2MegINLlWpfKp0GjDF+OASqzN5EkXp/qbL6sFL5uBn1jzcUaxg7tzXEAAC5u7sQp0H9eDwavYRdnPOJ+94P2Mxi6euDzRY0mx/Ia1ryrN3AJ3Q92VOvrzyFHp40zSL3lnl5i5Z2+s2OL6zjtTvEa7pls1mDl2CilNJSqbT2J8ytEDaTOZjyfRhLJNwfG/GTtyK2MI4pIA6jaiLmvzIgIBZAhD4DAuLQSygWICAWDIQ+AwLi0EsoFiAgFgyEPgMC4tBLKBYgIBYMhD4DPwGKAv1JbVCJRAAAAABJRU5ErkJggg==;" vertex="1" parent="1">
          <mxGeometry x="110" y="480" width="158.51" height="120" as="geometry" />
        </mxCell>
        <mxCell id="k0PMzmDsmBYJnkLfqHaI-2" value="Card Services&amp;nbsp;&lt;span style=&quot;background-color: transparent; color: light-dark(rgb(0, 0, 0), rgb(255, 255, 255));&quot;&gt;Advisor&lt;/span&gt;" style="text;html=1;align=center;verticalAlign=middle;whiteSpace=wrap;rounded=0;fontStyle=1;fontSize=14;" vertex="1" parent="1">
          <mxGeometry x="110" y="610" width="158.5" height="30" as="geometry" />
        </mxCell>
        <mxCell id="k0PMzmDsmBYJnkLfqHaI-3" value="" style="rounded=0;whiteSpace=wrap;html=1;fillColor=light-dark(#fcc6ec, #182e44);strokeColor=#36393d;" vertex="1" parent="1">
          <mxGeometry x="-290" y="270" width="290" height="210" as="geometry" />
        </mxCell>
        <mxCell id="k0PMzmDsmBYJnkLfqHaI-5" value="" style="rounded=0;whiteSpace=wrap;html=1;fillColor=light-dark(#fcc6ec, #182e44);strokeColor=#36393d;" vertex="1" parent="1">
          <mxGeometry x="-290" y="640" width="290" height="210" as="geometry" />
        </mxCell>
        <mxCell id="k0PMzmDsmBYJnkLfqHaI-6" value="Supervisor Agent Inputs" style="text;html=1;align=center;verticalAlign=middle;whiteSpace=wrap;rounded=0;fontStyle=1;fontSize=14;" vertex="1" parent="1">
          <mxGeometry x="-250" y="240" width="210" height="30" as="geometry" />
        </mxCell>
        <mxCell id="k0PMzmDsmBYJnkLfqHaI-7" value="Supervisor Agent Outputs" style="text;html=1;align=center;verticalAlign=middle;whiteSpace=wrap;rounded=0;fontStyle=1;fontSize=14;" vertex="1" parent="1">
          <mxGeometry x="-280" y="610" width="270" height="30" as="geometry" />
        </mxCell>
        <mxCell id="k0PMzmDsmBYJnkLfqHaI-8" value="1. senderEmail: &lt;span style=&quot;font-weight: normal;&quot;&gt;Email address of the sender.&lt;/span&gt;&lt;div&gt;&lt;br&gt;&lt;/div&gt;&lt;div&gt;2. emailBody: &lt;span style=&quot;font-weight: normal;&quot;&gt;The email&#39;s content along with attachments.&lt;/span&gt;&lt;/div&gt;" style="text;html=1;align=left;verticalAlign=top;whiteSpace=wrap;rounded=0;fontStyle=1;fontSize=14;" vertex="1" parent="1">
          <mxGeometry x="-270" y="280" width="250" height="180" as="geometry" />
        </mxCell>
        <mxCell id="k0PMzmDsmBYJnkLfqHaI-9" value="1. status: &lt;span style=&quot;font-weight: normal;&quot;&gt;The current status of the request.&lt;/span&gt;&lt;div&gt;&lt;span style=&quot;font-weight: normal;&quot;&gt;&lt;br&gt;&lt;/span&gt;&lt;/div&gt;&lt;div&gt;2. requestType: &lt;span style=&quot;font-weight: normal;&quot;&gt;The category or type of request.&lt;/span&gt;&lt;/div&gt;&lt;div&gt;&lt;span style=&quot;font-weight: normal;&quot;&gt;&lt;br&gt;&lt;/span&gt;&lt;/div&gt;&lt;div&gt;3. emailResponse:&amp;nbsp;&lt;span style=&quot;font-weight: normal;&quot;&gt;&amp;nbsp;The content of the email intended for the customer.&lt;/span&gt;&lt;/div&gt;&lt;div&gt;&lt;span style=&quot;font-weight: normal;&quot;&gt;&lt;br&gt;&lt;/span&gt;&lt;/div&gt;&lt;div&gt;4. summary: &lt;span style=&quot;font-weight: normal;&quot;&gt;The agent&#39;s rationale for reaching at the conclusion.&lt;/span&gt;&lt;/div&gt;" style="text;html=1;align=left;verticalAlign=top;whiteSpace=wrap;rounded=0;fontStyle=1;fontSize=14;" vertex="1" parent="1">
          <mxGeometry x="-270" y="650" width="250" height="190" as="geometry" />
        </mxCell>
        <mxCell id="k0PMzmDsmBYJnkLfqHaI-10" value="" style="endArrow=classic;html=1;rounded=0;exitX=1;exitY=0.5;exitDx=0;exitDy=0;entryX=0;entryY=0;entryDx=0;entryDy=0;" edge="1" parent="1" source="k0PMzmDsmBYJnkLfqHaI-3" target="k0PMzmDsmBYJnkLfqHaI-1">
          <mxGeometry width="50" height="50" relative="1" as="geometry">
            <mxPoint x="40" y="570" as="sourcePoint" />
            <mxPoint x="90" y="520" as="targetPoint" />
          </mxGeometry>
        </mxCell>
        <mxCell id="k0PMzmDsmBYJnkLfqHaI-11" value="" style="endArrow=classic;html=1;rounded=0;entryX=1;entryY=0.5;entryDx=0;entryDy=0;exitX=0;exitY=1;exitDx=0;exitDy=0;" edge="1" parent="1" source="k0PMzmDsmBYJnkLfqHaI-2" target="k0PMzmDsmBYJnkLfqHaI-5">
          <mxGeometry width="50" height="50" relative="1" as="geometry">
            <mxPoint x="110" y="660" as="sourcePoint" />
            <mxPoint x="210" y="935" as="targetPoint" />
          </mxGeometry>
        </mxCell>
        <mxCell id="k0PMzmDsmBYJnkLfqHaI-12" value="" style="shape=image;verticalLabelPosition=bottom;labelBackgroundColor=default;verticalAlign=top;aspect=fixed;imageAspect=0;image=data:image/png,iVBORw0KGgoAAAANSUhEUgAAALEAAACGCAYAAACSVmvQAAAAAXNSR0IArs4c6QAAIABJREFUeF7sfQd4HNW1/y3TZ7bvatW7ZEsu2BY1kMSEhEASajAtFBPAgCku9JJEEHoJAQIkhACmJAT/34OQDnkJBDAQx9hIsnqzrC6tts5On/t/42A/Q2y8ktdEMp7v40Ow5557ym9nz7333HMgOPAcsMAMtwCc4fIfEP+ABcABEB8AwYy3wAEQz3gXHlDgAIgPYGDGW+AAiGe8Cw8ocADEBzAw4y1wAMQz3oUHFDgA4gMYmPEWOADiGe/CAwocAPEBDMx4CxwA8Yx34QEFDoD4AAZmvAUOgPgjFxZWzKkUMBATicjg8PDw2L7z7GKqrGxwEcaU0dnZvHHfzfP54fy5BvHixYup3t5eSjWZr3Asd7eiqoDn6H6LmL/d2t32eLZhMGfOHH80qT/s94a+qulGgpj6W3o6+XTfYPfb2Z7r88Tvcw3iylm139E08k2ak45Lp2UfzVCAmBYQBW48Ho0+K/D0r7q72/65t4AoLy/3mCZ9CcvyyyAEFaZpAwghIMQC4XAo1t+/5UWTIncP9fRs2du5Po/jP7cgDhWGb+AE6S5CWFs3iCrwvGAY5gPEsk6iKabSNk3N5/Ew0Xji5K09Da9OFRylpaW5mBGfN03zGJ5lAUIIJBPxNRSitgZDwVsi0aiJaZZKJBKdNrFfGhvacvNU5/q8jvtcgTg3tzKEGeto1TZ/UFSUVxuJTgDbpgYxRd3d16w+AUCnFi6uKudY9z1et3Ta6OioEvIH4fD40M0sAr/ZurWzK1OgVFZWuilevNowrG+ZprkIAShbltUOLPvuvr7Olxw+RUVFZ4iSbyWimLmqZkgOwFOyvAYQ8Bgw7Z7h4c59GJtnqsn0p/tcgLi4uNgHofhtRVNPcLmlL1rI9iVT8WZREt6BBL64RZLeAhs2GNvd5S+oLCSqvjgQCF1j2/ZBtm0BAO11iWji4omJvuY9uBVVVNd+3ef3nb9lYOAMjuMAy/Aj6WTyQVO1nhkd7RnZeXxdXR29dev4iZwonEBsdAbLc5xhGMMYo7/EY7H/ioz2vjL9YfSflXC/B3FJScXRHk/OCllOn4QQACaxAaLAX1VdvoxHaEtnZ6e2OxcEg+XVoou/RDOs0wVBKFR0dRMv8JvkSOq2kZG2nl2Nq5674E4Cybkul7twcHAQCLz0tm2bd/Tmhf4C3njD3N1c4fB8kWLNb2KKOhdCcBwAwKYoSjZN7T1W4J5ob9xwAMy7Md5+CeL8/HxhcHBQmz13/ipM6FXJpJzPMJwZCPi08YnIjxMx8+6xseZUZu+PSjYQBscJkviY5PbkRyIRIPHSKxokF5FEDA4Oto87fApLK7/sdnuuAxAcZ9gWGh8fBx6/78FeYt0Ampv1zOZyqBZThUVjL9EcfYrzX16v18Gz2r914DKW4l7t7988kTmvzwfl/ghiqmL27As5Trw9EpnwszQHtLTWKYquV6JR+Y6Jic7EVFxbUD672rTp1X5P4PxoIsEBAkFhUeEr41u3rErIsaMLinIfNwyNdd706XT6d5qm/Tgy0Pc/U5nLGVNQWnM4seFNhJBKmqZqGIZREsnEH4Fh3uZ2457OzqnpMVV5pvO4/QrE+SUVX8AsfXY6LZ/Lc4Jb5PiEpui/UtTU2pG9ANT/OXAx5ckZuNDl8V3KsfyCVDIBIDQaPRI/L5GMAY5lOg3D+DG01F/29fVFs+B45C+oPNTW7TMomjrB7XZXxGLJtCjxr5mG/v+wlfjv/v5+JQvzzGgW+wWIS0pmldkIrjaJ9XWeF8pVXcMMRQ8nUvGrbBq9HuvtjWXLS7W1tcx4EhVBSF/M0Oh6joFA02TZNPVfUAD+rK+vc08Lv6mIgoIFNTfzHHcDQFBwYnsIYVrT1YeJpbw9vKX791Nhur+MmdEgrqurE5JJbYVhwxW6ZoZZSbA1TVMJBI6j2/o7mmYDsO1GN9kXDistP+hSTIHFkDZv69y8eV+Ad5vYToyvWq6LGZb+IUDEhTFWbGDzDE0DFlGqJIn3fPCPN+r3hY4zgeeMBHF5uc8DoX8ORTHPJBJqlSB5Ac8LYGBk6DWP28PolrnY7XH1tW5cVzITnJCJjL5Q2RUuj+8RREGgmvEcaNN35eTknEdMSMciMcAy7NZkKna1xhqvRbu745nw3F9oZhSIP8p1qKNZ+sxQKOfK4aFR7JL8IKUY/62q6mumRj1vIu1+lmcuNUy9cayvbf7+4qiikjmXp3X9Tt3S2eToFs7Ry19QerjIeW+0dXuBy+0u0nUVIoTfMTX5Fgjpnp6ejZ+LY+yZAOJt4UBlZSULEPgBwvhkXdNrJEkClgkGNVX/HoTs71jWjDU3N+tF5fMf10zjUpdbaO5q2jBnfwCx31/pJtA+h2LxnQzH8gPdTexHekFvbmmJwEr5Ii8+kE6nDxcFDhBCunVVbRYEdllLy4YhAAAFANjtHvVMt9G0B7FzoqUoyiIbkHt1XV8kCIJk2zYwTevRhGneOtz58aPZklkL1ybi8dO8XvdYT+umnJnuoO3yO29i0eX6yXg0AsYHOv7Nb77yck++FL5AU7UHeZ4HsfgE4Dhu1DaMh7u6mu5yNpv3F1t8Uo9pDeK8vLwSimUeRxB+naZpRNN0KpVKfehxue9uamr63a6cUlA66zFMM5dBYDds6dh80P7iuIC39CrM0bdTDOUa7Gv5VL8VFs9agTC8haZpPySWaZomlUwk50YiQy37iz121mNag7i6evbDBIDlGGOs6/rbpmE+0dfX89ynOaKkctaTNsAXKmqqZ7y/r3w/cRr2eUov5CXhXtEteDpa/rlHv5VU1ixChJzvdrkuSyQSNMsyj7a2NF6xn9jjY2rs0Rj/KaXD4bDI8+LPEcZn6Zr2Fk3zV/T0tDXsSZ6cguKnMcMs9bk9zc0f7h8xsaOzz12y3BP0PmCYKjfQ14Yy2TasrKwMMaz0tmEY1WlZfn1goPfYPdlvJn4+bUFcWFjop2nmpwTAJQBTf+3tbDsmEwPnl5Q8QQi6WBTEps7WpnmZjJkJNOFw+UrMUHcBYHODWzsz9lt5dc1blmUdRWPqj53tzd+YCbpOVsaMjTFZxntLX1FRkcPx3POmCb9mQ/ByR0vTqZnwrKytfQ4hdA7H8HLDB+ulTMZMdxpnd4JiyVm5uaFH0ukU3dnWlLHfDjniqI2jo6MLXLz4QVPTxrrprutU5MvYGFNhvjdjSktLOYbjfkZsdJ4FyOvd7S0Z/RQWlVc/aZrGhSzDNvd2tu4XW2yOLRIp41KP13u3osjs8EBvxn4rn1X7djKZPNItCq92dbSdtDc+ma5jMzbGZ62AczNCM4w1DM2fbAHy597ONifHdo9PcUX1M4ZhnC/wfHdXW3PFHgfMEIJQfulVPMvdr+sKHB7YQmcqdtXsuf9Q9PQhIi/+qW1z4/GZjptJdNMWxGVlZeFgTvC5WFT+GsDodx0tTSdkYtjy6tqnAQRLGYYZaW3clJvJmJlAk5tbepkkSQ9hBtNtzR9m7LdFhx/+z9HR0TpJFN9vbWw8fCboOlkZMzbGZBnvLf28efN8um79RNONsymWWdfZuvnITHiWlFc9Ztr2ZRzHdXS1bq7OZMx0p1mwYIE3nbYvs2zjNkVXqcG+noz9VjN//jpFVY+AwP5TT3vngTfxZ+ns+fPni8lk+gXDtE6iGPbF3q7WszKZv6i88gUC7CWSKI63NjbmZzJmJtDkFZau4Bj2fkJsqrfn30/sdqdDdW3NH1wu17HpZPJ3Lc0tJ88EXScrY8bf6Mky3lv6ior5ObwAn1IU/ZuIol7raG38eiY8i8srbwQInM6y7IcdmzcvzWTMDKCBJSVVpypK+kKGYz39fd0Z/So5elXWVs4RWGG2ruiNra2t7TNA10mLOG1B7NxQdrncj8lp/UzM0G91tW3+Uiba1dTU5BGMy5Btdzc3Nw9nMmYm0DgJUKqKgpZlUENDB4qs7OyzaQviwsJCXhQ9v9Z04wROEH7XunlTRgu7mQDIAzJm1wLTFsQLFy4MxWLyzyFCJ3GC66/NjeszOrHLrnkOcJsJFpi2IK6urgtKLuqZyHjsmxTL/q2rveEr2TZo3QknCEmJWwTDntw0UkOAoxSEOaSplt/PeyKyoaK0lrIYUbAZGxIhTd7d7MnpBvX10z6t0blA8MZHdS6cdNYNHxWHce4IOnnXu7ElBgBYH3224++dx2fbB9ngN21BnJ9fJzBc8jlgo1NFt+uPmxvWZ/3cv+bUU/OMwtAaUJhz9JAVo9x5ISArBlBTGsgN5IGEnAIaUoFuGcDDCCBkMxvalt90cDYMv695LFhQt2RoZHQhx7I14fywJxmLJVKqJldWlM6Px2ODE/HYgN8fKDJUAxHD3kIzTHEw6A+2tLY0eDy+YFFhrrt/oH/YsCyzurKqrrurt8s0rFGfz1eoaZo5EY32B/zBQDKW+nlH967TYve1jtv5T1sQV1YuDDEseVJTjRN1y3xza2/b4mwbpebsU0vGvJ7n0yF3iVQSLhpLxwmNGIhNCEjaIARBiNwCQDwF5PEJEKKF3rEJUDHd38ROBmBefnFUMw2aEOLUdwOSSwCpVAqwLAssYAHTdC56IMBRHFAUBdD0vw4BKRoB59KBqqqApvG2Aoi6rgOPxwcmJiaAKLiApmmAYRhgmzYI+XNGI5H4F7u7P/yP7XxMWxCXlc0Nh8PeF0ZGIsdACr/e3dGUUe7EZIBec/a3qwYl9qGiQxYcO2Go5yUTcq9Is6xk2TRK6zGG5b0TxJZpr+uO8XTssOJggGrpTfKgvn5aX/U5+IgjXxkcGDxJEMU0x7FRimU98Xh82CSG7nV7QwQBFwC2bJq2rKsmATYxfD6vEI1GEcuyvMsj6TRFuUdHR0c4jtcRgoUIUjTDMKl4LK7QDG3JcrpA5EQQG4sDSRAn7LQ1r23rxsHJ2D9btNMSxIWFR/Beb9KtaeQFG6JjDN1Y19fbmvHeaKbGqTnnjEVjHuphrrhgvm2jLw/eePcmJ093yZIleO3atdtjQxBYsXw5leu5S7e15uimrUeBjz5bvHQp98Yzz6jOfLVLljDNa9fuMtbcOT7dme7TxmSqw67o/Dl5cY/X59Y09fLBLd2PhWprpbHmf5XtcpKJent7t8kMFi927t6B7TXinG287bXpwvPniyMNDbLzsXPw1PDR39toPB47L5rSOYYHtmYBlmKAKAlx07RObGxc9/e9kX0qY6cliCsr5y+yLGs5ptklhBC3bdtDlmk9b1v6Q/397QNTUXRXY0rPPLl03M89G6woPVxOJvxj9Y/tsj5bxUXnL6MqCh8alBONlq2dJLj8J+mKWigIUpFqpOMQAyhQFGXbdlpPazxCwLJYykpbpggplMQQYSSbmIFYSRuqYOpGmqcYQlLa3xJN3a9/WqHBqehaVFwaI5Dx2MC+YnBL56NT4bGnMXmltYRjeWATy3mwE14IghAxNfXE1qb16/Y0PpufTysQl5XNmsVJ7kslwb0ymUxti82c+AsAoGGM0gBYQ9FEdE10tP/ebBih/MxvHzwREh4sr519VN/6Lvf4U08ld8V3zgXfOT8e9t7omV0h9gwMnSQFg0/yLvfC4YlxYHHUtsosDAQAWQTYprUtjiQUAjoiwGYpQHQTiKoNOIoBCrEBQRAA1QBWQtmkjaSOAw899LFyr3ur2/yDFhLDQkDVtGt7Opru31t+uxo/b+EXSSKVApzAPg0xKudY7stDQ0PALbk7eJY+t2HD2+/vi3l3xXNagNhfWemmNfMGluGvZmiOMQwLEAJihJAO3TQeVNPp0uLi4u/H41FAM9hWFFkwLOOqPL/3qe0/c1MxWPmSJcWjrL0mXFI4y2fhb/7z7h/tshFM4VmnXskuqLlviy7/06TwCgrT9/KYyTMQqoE+j2VAiKFhAYpAmQFIRAQAGwIL0BjHFUXjGZb1QAYYqqbHiMFQwrayEUAbjQOPCr8aJ8bfsrlYLC+vShFCibqlXzLQ1/XEVGyzpzH5RdXE5w8SC9g/af3wvZUl1Qf9HiF8HLBswHH8ECb2wqam97P65dydTP9REJcXzp4HOHyMaujneDyeOkAQkGU5AQDeoGvaT4cH8CsA/GtPU8qtDNGWfhHP86fTDF5g27YeCgX04dHhGxECf+rv6urck+E/+XnNqaeWJALuNcGSoi/LI92ezkde2GXFzNJLL16aLvY9KnNsv7z6h7MKf1Tvp8d1WvBzxePEVghC2DZtmrVAgqJoyU7LuomRxVOMpBI7aeqA4S0Ly9iUgS/gGtcTX/GFw/fKkSTgZXhI3FQ+yCaIi0tLNArzDKaoFR1tTQ9P1i6Z0BeWVBOIEbAI/OFgT8v3nTGBvMq1+bm5p6USSYCAvVUQmGMbGze0ZsJvb2j+IyAuq6491Nasr5umfR4r8JU0w2xrxJJWlD/TiHpRTaf+MjDQ2b8rxYqLq8pthE+nKPp4m5hfckIOl9f7z/HxyMs0Q54b7OramqlBFpx5Zmkfh39WdvCCxSPjg3nhQTm54YkndlSM384nuGLZtaQk5xYTwC2hntghnY88stvC3JnMnX/rVSfRfu8rsm4DPUkdlqivX5/Jxc9MeDs0ZVWVUQgYLwRoRVfHvgFxbmm57vcH6HgyfcdAx+ZbnHmL583zJUeSd+eH85alUylAUajbssiy7u6GKZe4zUTnzxzEecWV5wZ8/scjkSjx+/1SMpkEkkt6U07Jj9BIer2z8/2M6gdXVMwt0mzzJIDgzZimXKZpigDBFjmVekkA5r2Dg4PpPRlg/rlnHjYocPfB/GCVzeM4x7IJzgIUMm2YmIjJgUBQHIqMa9Aj+g0vX8UANOgzxso7r9o7EJdcd9GpbH7olxOaxbJM3rcG1q370/Ydjz3JnMnnheWlEWJTfkLAvlrYweLqGhtiZCLI/rin+YNrP5IL5efXcaIEHrVsa6lzJZvn+W5dV89oa9u4112o/uPhRFF59SE2QL9VVTXs9/i3LX5SieSbwAa3Dgy0/S0T5+yGBks5BRfl5xX8dFucqaQBxzN624cfbC/1tFvWdeefUTGWH/5l3MMfakgU4NwSSEZjjuG3/SPLMqBZHqQNDRg0AJU5eaB9/RDe25/+4puuOh3n+n8dM21gqtxRyY0b38syiAmFeUAx1A86Nzfethe23e3Qwop5xDkg0U3z5oHOhjs/QYhq53+hKxGLlzKYAgzLjBqGcnBXV1PGv5KTkfkzeRMXV80rhwj+l2WbCziGH7VtMmoZxk8tNfpUtopEh0K1EubNq0VJOAkC+/91Nv+bYf/NLs5+8D9C7lVWQfBIT1n+yX1jIy2BUCDIiYJ7YGioVRSESkPRhiwAbJfXVWRNRK+rHsFPvlFf/6991ik+RTeuPNkIup4Hbq9o6dwXx954491sgjhUXDCIEZdHM/iKre3t+2SLLVwwi/CiqGEKPtLVvGH7m3gniyzBpZWdL1MInYAxBi5RUFRVObyp6f091g6ZrFk/ExBX1c4/TDWttwiBtGkZ3zUt9KfxLS1OobusP2U1NSW0Zcnt7f/qpZHBA2uXLxfFfNciRTF6WA4zJqYwwVba1oGLtjBEDGtDbBLesibeuumuvWvLVV+PSo34CVbY9/yEQSRMBY9PvB16Haw9fcfhSgYyfypJ5UFzoomE6uUYZmVfW8tDe8tvV+OLi6tVmheQZlrvsTz796Qsxzle8BuqkYA2sVlBCAHLJqZpruJZGpu6AURRiKdT8je6ujZldR/5MwGxP6fkC4LH9Y5TybJ143sZVa/ZF4afLjyLbl59RsJFP6NzImaY3G/ERwffyOZRtrcgbHm9OYii6NWdH37w4L7Qu6yyhhAIgAUpwPHitlwLRVGdI2gAId4WigX8IZCIR4FlWYBjqG35GgLLP9netv7ibMr0mYC4uLz2KELRf02n03SkP/P7YdlUdDrxyv3eqtOVgOsncc32+X3F3ykj5OUNl1zyb7siU5W5Yv4cU1VMTFP08t6Wpqz3qHbkWvjFL74YjUZPNjUbqqrOcBxnAIBoWZaTNMUgjhNE27Y1jDHr7DxZhq6YpskLLPNcV/vG86aq267GfSYgLi+fe7AO0N9ZnuO9nMVsz23NpiIzhpcTTlDqEj3kfXE4KZsuKXxcfHg8q4cdCw87hIyPJQHHctd1tGy6b7ttDj3mlECUitziyQvUpgkMxBLxPggBJfFuVvS48UQsavqDwVzTMjVd000KwrSZNgGNIQKa9nzjr3/z9L/beQkGYK2TX012zsv4WI5GaSmXj8QNoiDOgoT8sX3z+qze0tnnIHYSqocj6ToC8LvOz4mbM7lPa4A4Y8C4F4KW3bLytLTAPaHygptQrhMSkfjr2QwnwuFwwiUEXAjj1e2djTvCicrjjy8Mzs3/fZKxCuhQMJBIq4DHLsBxAoirKlBNA0CWBhTPgng8DkSGA15WAPJIBBRJ7ue7Nmxe1r927ZS6NdXMO/SDZCq+EBP4qy29rWfvhfn+beg+B7EzY0HJvCMoCv2dYhi7q2W9c+a6x0YwhYWlhzESF+3eD2/oFl63/FTD5/2ZKUlBC3OLY6OJd7IJ4tLS8hS2aJHC7Kq23oYf7+z10u8cf7ghsWICwLSBoAg0YJkGNiSPSKm2ZQIGU5gTGDmRTHskgQeqaSPdVHMZbrTl4Z91TBV8ecXlGzmOW0Ah9GJHa1NG5RcynWufg9j5WbGQOI/nxPd0XUe9nV4agN23h3UEr6ya8xiF6YtMYv/BNlLnd+9njVTyb73mJFwQfiFpQhHawpeil132NoBwj1/sTJ166BeOJOPDccAx7I3NrRvuznTcznTZTBN10jfDBcUTkciYgCH80+bGhqwWcdnnIHYMU1590FGKor+GKIof6Gnc5e5EbW1dsW5rsyGCz5i6neccJ3McNyHL6av6t7S9MBVHTNMxMHTH9UtSLPuwYth+l7fgjGqEfpfNhV1OSXGKwy6RQnh5d2fDPlnYTda2+SUlH9IMM59G1HOdbS0zb2GXXzHnSAjR284qtb+jwUnE3rEnGnaKpDD20aZuncnz/FGyLAdDwaAaj8V+ranyr4a29v55sgab7vSeH153mslwTyqA5nl3+ER5ZPB/shlOFFRWpAmheYalVvQ275vcicnaeM6Cuu7x6EQZx3HPb2lrOXey4z+N/jN5EwcKqw4LBAJvKapKb23btONNnFNU+XVRkq4M5+Z8s7e3D1iWASRR/I1lmY/0tTe/ua87/jgndpt55ljJLY1hemLzuw9ObdEyWYd4vr96Sai47KWBiYTFCIHj4zn+v4LTs3fYUTSrSjYBLbAUs6p386aPxcSfKmt9PdrVkfri+sXUG/WfHgLuyQallTVtJiKVgsD/V/umjafviX4yn+9zEBcecQTPJpRF0Vjqdc65sBU33F6vpdtYfBRBcoqsqn5R4ollEsOyjYuQrqx1FNhxhWYy2kySdv5FSw8fg+h+mUF88azSWs2Qv9eRZH+8ZPNmsvP1pEmy/XTy+npUYCe+nQL4McCJPkHyn57Psr/NZjhRUFEVMyHtYWjuiq0tH+w4dj7q7LN9cS//MMpxHxkxLUYGZgJR0A6Gc8ThifGUbui83xOwUtGE7hIFUTNMmZY4KpFICBSion6fS0iMTdgII80d9PoHBwailA2w2+9DETWlaprmyXMHdFHWX/dErWfXP/SYk50HSksXcywvr5d1dW5CkZ9JDHZfkE2b7nMQb9udqKw5nKKYd03Tdpp4L/3fjPd6OR4rDQaDgOFoMDI6+oSqyQ9GBgf3ee7pzsarPP+MCjWY85wd9tVpLoqhBdqMjQ5cUC6PvNRcv+v7ctkwfv4Ny88Afv8ak+EZxLiOLsDsumyCOK+ikhDEA5qhvrd188bbt8u88DsX1DI1Bev0HI9nAhES0RSIKKzLqmI5e/hp55QtkAMMwwCJSATwPu+2RC05Og5yCovA+OgooBDedgtaTiSMUG6O084KEAZbGkUwsWzgJhQIpsn7Qmf/SU0PPbkjKb527uF9CUUuwgx6bkvLhzMvJq6cvfCIpJr+K4SQwxCpHMdxajLRzYv8K4lE/L9HB/veyQY4JsujbMmJs8Yl10+l2aVz2YpwMJKIAjMSAwHMvsWp+v2dN/3o1cnyzIS+9NarTkp7xDUm7/HoOnv0LEZ4J5sgDhSVbEG0mM+w7FUDLRt3LOzmnnVRWM/jb0+6aQiCoUNH44lxYCGNE4Ucw7aGdMv0YIgRy7ApfyCQOzI6OmaYOhbckiudTI24JMlH2UBX03IKM1ShqimDNKZ4xdQYwNMTkIJ5jKLLeRazURxJ3rb5wQcnttujpGJOs6anazCDnxvo6px5IC6trDk8pRmve71eKZ2SCcMwLwHLfry3s9GJe/9jT9VF59YMQ/OxvAVzD7ZDrh91trd+pSyn6AumolgWIM3AMt/Emv784R/0fZDN8KLk5ktP0fMDayImdEHsO0GjpT+DLB47e8J5PZiTSniOv3yg7eO7E3XLluUBAMbbadVNI4+BLcs2GIaKJRKWL0QhogkQOf9PkmjKjpiEz4exeBz5TdO0RBODOACYoiznYmzUTtIS7RVUWY45/8+k0hRmsJWvi7jc41F/W1+/I6d7Vu3CdoBIVSqZeH5gS/fMW9iVVM47wiDWOgAxcLld340NjPx+ZKRr9D+G3o8mzj3z5FI97HleKsw7Mq2r+TZBlJsTLzAIuFjhUCHrFYGuqe+CSOrCyPX3Zq2RYfHqC5fAivyXBlVdZzn/ccEx5d3evUzv3NmWwfz8KMWLXppnl29t2je5E5P13azaut5kKlXMcuzzPe0NM+9NnF9eexRA+K+EEHqoq8mp8TUtapmVXXh2SZRDL/iK8uYbI2a4/8EHtx2pVt56/QljunyB7RVOQW4eAEMHAc1+Skya9zXWP7DXcXv+DZecpeb6HrHd3oCu0Rei6PhvU3ub4rkTqjyh0CgtiqLAMcv7WtvXTBZw+4K+orquSTfz2yIKAAAgAElEQVS0ORRFrenp2JTVutGfycIur3zuwYBCf7dtwo90Nn5sn3hfGCxTnk44ERXoR8tnzz46Ndrrav6o7kRtfT3TXF+vz7ll5W0xHpzH5npLIvFYQsDMWlY1n5SHI98RGa5ajic4t8TzBBIYSaZitMSDhKpaLKYsSrMARdF5JmWPKUqauDCPaJbDCcukNbeIPPMqjxxPyBbN+LGxufFdOjWueqEtyxbII4DqByYByCaUwPJEScg0jTiWE3lzIj0BMYUUyzQtCkDKzfOQThsv9j33389vP84PlpX0shRbAmzrkoGuj992/mRhmExttTd0TvGYnpFEi22YZRji3/R2bPz23vD75Nh9DmJHgc7RiTpDt99zbscOSzQDPqrQmE1FpsJr1kXnzU95hacCwZw6bUJ1t91778fqTsy7btnJUZ6+Uffzh1oSC7wuz3p5y+h1+ZLvUcswaiNj48DnkQCkoAPebdebokp624qeNmxAYwoQGjlgBC5CA9UwgYowUEUGjGECTMtJXvQAl2GAcDoCWFsDKsUCm6JBMiEDj+gGyDSBpZpAwCKgKArE1ThgJRbYNgDEUIGIAbAmkg+bo9qtm3/xi20LKeRz93oET5Hf5bqsq7V5x5X9I5Ys4WGIuSCO4EjctglkRDdDaCUZjesc4kwT2gLmKEUhpk0xdEDT1QhDaEgsw8PzYlRW0xizNI8B0sy0ChmBRUQCruGx0UjQ7QasQcqtWLpTtPFYKeY2v/bcc9sqCDlfnP9574MPOYadY1v208O9rd+dir92N2afg9iZOFxaczik4V8Nw0SR3vZ/FV2YBs+si84tG8X2r4rLSg4i43qw4f77txm9YtWFlQYE19A+6QTVzeVrPAJur/cXyuDEs0Mr7/n7l25eXRRVlRyBZQzD1AVCYzOla6bgcUuyqaYRYChsmAgTlDahIemqYbhsDClGZLYaqSQIek9KsczVvD/sJiZ7DZyY2CQNdadxIm5AyaumLZuBCBEGI2KkdA4CkHYhidI1DUb1tOqVGMEGtGFYCcLaBsPJya3Na/+woyq+lJs7xtGSwDHUyv6u1p9vN/XB3z1nVirAr4lyyI4hVCP6AjA2HktRAGGaYRQCgTcdi6XFkN+gWSYvmYwP2iZxigx6jZQyAgBx+XPzpHg0GrE03YUpOg5o2gshVC1NlcvzCiuVsciI14KvUX2jVzR8BGJn/oKauR8SQ59vW9aa4Z6umRVOOPVw44ZRCyD9N0KId7CjZdrExJXfPesIPSA+klOYXzcxOOztvueJeOEtl1RFFPXecFHBbA3as8OlRcA2jZvl/tFXcyyl693V/4qb9+bJv/XmE4Si3FdGZAUZBvUlNbEtiy1r64RZiw42JmJpyi2J13Y1rN9RAeiI884rwCXh1zoS42E6J8dNSxItshxIJpMEcgx0TkxphAlDUzA6HjHcPjedNgxgA8uUBBdlKrpGQ8g6mUqqaVoIIQxNBIgFDK/PTUeGRxUvx/F2JP4WOxb99sann952lSu/rk6ASaWD55h8jmP/0PSP97+5N/b7zMMJZ8LKhQtDhqqe6Pf76Y3vvLPtVvJ0eJyFXdqNXuDygnNcXu/VQ+ORfBfvqZctE3MBD0hr2mMByfM7biLe2HBV/S7rYExaDwJg6Pbrvm24XM8kCRFZj//ktNHwB3DJv9e7mDTvjwbQgeCoO5jr5hn+yv7G9TvexM7Hx557rrj9Z/5j/J1k/d5epvejAok7f1a37ARhwxO//bcSCE6oCEpLqe1FFXceU/+/R9j1O30xq+Ye+mEsFpsHEXh2tK99Zr2Jp+qIz2JcxQVnFo1Q+i+FssKDYcDTNTIyyvtc3vKSgqKGRDz1K05HzzB6Wt20qj6WTXkCd954qiFyL8kAIUp0f0Prj/4lmwlAwZKSMcBJQcMwl8e726ZFFlsot6yRotm5LMs929u56fxs2vMziYmzKXA2ec2+9MzSGOt+Mvfgucc0RQdBqDAXSJB+k4mnfiSMjv9j/XX37YvuS1C6ffXp/qKSF0diSVsD9LEgqmT1elJl1azRhG6FPEHPyo4NG/bJbefJ+iFUUtrmEVxVFIAvt7Y0zKzdickq+1nSL7zkvCPGMP2wLAo+PcBXuALe5UBJ/r9i5LL/ccVNkX0iS309CtGp0xSGeTRNKK/bl39GzIa/zeaJXVXVLEUhgLNs+7Kh7o7/ePhWV1cnRFV9va2btXI88czY6MDMSwDaJ2BwClsvXy4NY90rUK7I9oOKSc1VX4/mDg6uYgK+KpOlXyKaMth4194fZuxJhqKbrzhDC3rXyBRP28D9JSUSeT+b4URBZQWxIAcgJjcNtTbftbM8tUuX5PZjoGMdSFEILIHCJG1YFKCxyUFEA4wJMg3TZjgG6apOEEbEJgzmmLRlWgw0KAJpw7QRxULTMIFlQWJaEPGskZYJ5gjBvGHEomvXxneet6ByXgdCqExV0s+Pbe34fMbEzl7j2znuQk4SvATDUyJyQsc+39dgKG8xr5p/FnqHTtrbQn97Al+2Pi+7edUJST//jCl6/ZrBH6WEw+9lM584p7RsAGAhn8HUlf3tH/5ku9xVp55dDityfj2EjKAUzi/VIVKcSqzOIQkhJAYQdLbLbKd+MnLOWiAglm5AimWIoWrQIXLKe1mGSQzDcP5GhpKGACMCOQ7QFIUZRSdBE/yFdPec0/DTn+5ILSiefXAjIdZcwzKeHe5s+vzExHVXnl+hMPQZqksI8qHAITImeUlTd1M8FxoZHB7Abk8O9Phpjwl/G+5PneacsmULaPuQDwzcuPIkmBt4PG6TIKI9J2nj0dey+SbOLa4YoCgxn6XZFV1t63eUdj3ovEsLEoXeF3rUeEAqLZ+b0rQETTBLI0wZhhG1AHE5Byo2IBaxbIQoDAWOR/FEnLAMa9E0jVOJuEFh2uJ5npbTSRNjhGmOpVTLsmw5jcIuny0mU38Np/Tb3r33jn9st2NhdV0TRcE5ciq1Zqyvdf99E1deeSUrucyvjiTjCylOqEnalsTnh7+gQMCYhLgZkQcaJCCtKqAwv2BwcCKab9EMcFv4pcTF15+ZyS3qfQjOjFmHbr12SZKl1qiYBhzvP04dj63LJoiLSqsIoiXA0My1Hc3vf6xSfPWVlxwUwdj5FatV05oKADYFjD2KaUZsw5AYgXHK+iQNywizLBMnBGFDVwQIqVEAbbetW5oNTAUCygtMc4IXBCGlpSmbZeLIsgOcBRTRBEqJqTa9/fjj0e1GKa5eOGDaVr6qKWsm9qdwombZOXk45P/quJz4Zm5O3hfTCOQnGQwUDIFKCMAMC0wbAI/kAjzHASOVvk2NxdZNXH3ba4H7v39DRE5eDLxCuMAfvjz37aYXdlVbOGNkfYaEebdf++0Yjx9VLNorSHln1mD8+2zmE5eWVYybFB/AFLxiS0vjPikoOFlzlVbNb7IgnGMY5rPDPZtnZjjxlasvL4khME8m1kFIZIxxNTnHYNh8FeMaweWWOUBXUJhJSeGQu29k8A2vL6gYSvptSjUHgG40QBtZZlwZHr7rrrHCm28uGDVid/Dh4PlUyPdLdXDoXvmGe5xqi1m79j5ZJ2VM7+xOmKOngnDg+THZIpxQeIKaG/xbNmPi0vKyhIEZF0ZoVV9bS+Z37DJWYnKEzpV9C3KNsqqV8ZL08paWGXDHbkH9Sq8G7ELVIEKhL7i8f3CoK0XZtbTPfYwvNzcUUVJAwQQkbQMEQ3mAA1S/S7Fa9PH4Wy5E2ZaqvG4q8c7N9f93M2Bns5Vde/nlE250WrC89NCBntGvH27y770xzXvLfUz+G5efJkvczzXBzZvY/y15YiKrBQWLS0tiFmY8iIbXbG1tf2BykMs+tbMof29TU6NpgRoE0DMD3Zun3xbbsdecKw4QXMvlBi9P2JZNeT0XpABxzqNsSrGRadkgDS2QUjXgllyGIAkJzHMPpNV0t66ZGykVRP0TejzThdms763cEvXRnvLaucpAQ8dRW6+7vSv7pt93HCtWXXqKluN5RBU9BSqQFs9is3vHLr+oMGZRrIem6Sv721t37E7sO432zLl89kGbNNM+iJjmmsHelumzsPvqVcuOGrS0k+MshHGKHMoFfSWAYTiDwiHCc8DpcwbSBoAEbPIFAz08pNqt0cQbrGmnKVUfxQYcefuGG2KTqX5TefE5J1K15S/B3CDrVLIze4Yua73prn1zMLFn30yJovLma04ywr6nxy0iQEo8LhUueCub4cSiI79AhseTgELghr6Wxnu2Czn3mGPCEwK1Cvu8pXFZCaiG1WcR07YsLYwoashGEAPDwozEA1M3WRs6u8QIWqqmeQIBMz4ygpAgOFtrUI5G81iO3er0hnZLrhxM8fHkRJzkuFwSVtW38znuqXfXrt2WGurcdiZMrAtBnEuz1G/bG94/eUqG282gKR87L66vp5SBjh9Y1SW39FoKkBkEWLf7f7sXQNPt9Y0ouvaGSPHrQTKddhH8X5svWj0x/777xIZrr92W7jjVp/Tqy29V84Lflym8OYcTf9h1yeqXJvMlyGTeJfX1zNp9t10HK+/4wZKtpvJjnRd8Hm/+2RWEZLUCULC0OGLYrCTx0oqBto07TuzmH3tKDled+yrODZYbiA6ldQNYyASS27WtgKBT0V0URSCrirNx7DRX3FZbOBqNAo/HAzia2fa3Q+d2u4EsO81lKGBoBuAwD7ABgA/RIMAx63s2Nlyw/ldrNm+3d0nVwiZdN2sIsZ4d7muePuHEkVctK5ZL838ZkbhDIthg0rYFAEbJvEDu2yitPsrJZltRf6I3W/Hq3OXLa9oZ+zpcWLhU9Ph/AaOpW8auuy4r+Q0Lrr22athMLrQknItFusBCxCSaZUmW8AcvEFo31WcvCYi54dJvo1DwUVUDXm9OxZn5/Vv+kGkolcmX0F9WHLUR72Uwe/loe8Nj28dUHn88y4viibpAs7JqAdrZ8bEhUU3N6b+BTUIoTVV1mmEQhNAiACDDMCyKQgJDMabzbLvCn0pBfzBoxGMxiBkAGBZBymZoIhu6ADEtADLQsPZXTh+WHQvt0soFzYpm1DAUfnZrT8P02p1YdMPVdfGAuAjm+H7Ul4xKrmBwWzd3M556p9gdfJqOJobar6v/QybG3xNNxfUrzuvn2RWmKC7yCd6v5IxF38mG8+dfeWVhD5AfUX28P39W2awJJRGyEEA8J4F0VGsgY6lXygF/X3N9/S7b5u5J7k98DoN3X3MWm5v37FBMMT2uolOiW3uyWtq1csF8NaXbrG2aV4+2t/5o5/nnH3us2PDaa7v8NSxcsoTfVelW50bIu7sr6bpkCc6k30jZrEV9NKYKLct6tattw/QIJ3bluNr7br1gi5ZYqvPUlySPFxBigVh0HCyaM781tqX33gBBfywdAxNT+qlesgSLZa6fsfn5p7n9gV9TMeuhzquuaZ4kgD5OXl+PKiORg2I8WBXl9XOF/BBQAAG2TQBtYEsUXXginQTOZrWf4KcrGe7uf1xxU/tezUkAzL/zmjMSyL4nZaJwTkHtRe5Uam3nVVftVW+8nWWqmFWdTluARxheNtDW9h9PAKqtrZV0zL+fiiu1PMuu6enYOH0Wdp905lE33OBTCLFJkXvZqCqXmDx7TIKxZlmYQGSaKTqprKtCwtINq+6cdNOZuT9cubjDSj7BBYNVAuJ+lJuED2y8vn5wrwBVX49ckaE7k9j6Vu7cUglh61krqa8nCTNC20CWvP65/Xb6W3zQfWYqGp8o47zXnTGQeHrnZO+pzF94+9XfmbDtx8RQvhuxnq8VGuTNbB525OYVaIDlGIZnru9raclKH+yp6LnzmJLZ87oQoMvNtP6zrX1Nl+4tv53HT3lhl4kQdXfclBf1C4/06vEjAYdzkW6Br81d9MZoe+LYyTot/9pLX9BypW/5Kwrc1siwt/uSez6WJZWJPJ+kybnorHDSF3wgb1bld5KRyB2utPZE96339O1Ml3PNivlGrufHKU09ujSQ8+dgeuCU3VxRcmyZ0WFL4NZrTrIk98+gIIUJcB0dGxl4O5vHzvm5RYOYd+VZwL5ysGd6bLEVVta2YIJmQ4J+2dvd8J2p+Gt3Y/YpiJ1Jj3j+4X9ulsfzZGjlBzz+D8qw+Oz7p106qUTthVevPD4e5teOEBUUzir6k9y99dz+LNx1y1l2fsUoxTxdVXfQUSQWPdmTtP6yYaeqNduN5r52xa2u4vybDF151w/R5SiVWs4AO4ghrAQ0HbUwwopJREJhmWco1rINU07Jdl5hgX9CTqTjE0lQFSoAybSs98tJnUiSH0nSQWMTKdMrBE89aGLsj9la/Doy54WL+jEvFViWdtnQ1u7/eDjhyFRePXezoui1LEU/2zuTjp3n37LixETI/ZteObo1f1aV5MbMjcFI+r23v7u6YTLbYguvufKr0SL/60xewOZZvMLYOPZENhZ0pWcuLY0XeF+U8kKHpca2eKP3PLHLt3vZNddcjIvynxhLx/pCLuEbKSX+KMWTw0diE2wgJx8YBAKLYAARAgDawLadNFtzW2wtuXxAlhXAOC27oQ1UQweIZwHNiMBKqEBMGl8Yven772X6Fs/kDVZQWEpYXlAsQH6wpaNlR+OZTMbuK5rq2rpxQoif2NbznW0zoKDgMTetCA9a6R/SRfkXTzAY8EF/bzIav77ADL68YdkyczIAdoyav3zpK2hu2bcsBj/ttczHWy6p/yAbxq5esqRgJNf/JBPwHAbkVO3i3rGxXdVcK7hi1SpYmHdnihj/tLXkBf6A+L2kEZ1dUlF26GgkHrcgtm0LuSCEExSFOIqi3LZlJTVdd04tEQAIQUjShBDDtp0sXWI6hfBpxXiSH1Mf7brjjqy2iy0srfhvYoMTndxf3TDTumG4IMCyZZqaBQHLcRxlWRbUDF3mWYYBAIgAgLiu65RTCB1j7OymSTRNp03TtDHGzueGs2fs/BtjTEMIedu2484OHKYpDABUCAE8Qkh32tsBG/owhZw+TCbDUM6+MrZsA8ei8a+ODHT9NRv+284j6+HEYXesCA9Y1uNMMHiywdNQE5kPsGbeXAy1de+fU59R8/GdFaxbvey2EQZ92Vc354hUMnm239D/sOGS/ytUtzfGqD333OKtPLi95qhDzu3s3HyfqBo/3nrvUx9bLNYur5dajbE7g5UVSwWX8CswOryCYhiX3w1srBoHUwy9Fdg0BZDhM019AFCsi8E0ZUNKU9MKyyAjDWjEp2RN0ZPplAmxgE2kWEBDTjZ6Y1f/lky2qCajZ05OUQXFMddbpnmsx+MNa5rOEQhs0zQTgCAvzbGmZRmUYZAEg3g3IdDZciO6obMIIkxRVMK2bS/DMMS2rBREyOWUHrMt24YIOr3pnB51imEbxDTTFEVDGiEkA4AkhBBxPoM2FCgKAedL4TRqpDCOURRa093RtHIyumRCm1UQL7j24gUTXvEyy+9aRnE84Fj2BQjsR83xvg+m0pn+2CsuKrNKCrr7sQ648oK0PDRxVOdl39+YiWKZ0FScckpOotB9h1hRcFHa1gBD4DI6Enu1hymMOAut6ktXFfQg4zhT5M8N5eV/OSiJlzVffPHPJvtLkoks2aYpLCzkdd1eBCmON0zdQ3F0wlQMbBIT05hVbGCI0EaG8xKGEHEEAJnYJgMAhjRD6ZZpiTTDapamOb8jtEFIGkHEA8u2IAVtB6Qm0JImUSmMCLIBViAgEkJYA6YJbKeMLwVTtgU4gWWdpkyJcS3enBwczLRdccYmyRqIF99w6WLNH/h1uy5Ttsj7wy7XtUjTf9p8+e4PCA5Z9d1ykxX/xAl8Z6EtnPzJ/eNjViw/JF3g+9tWU5bpguBDOD7ywFS+DJ9mjfCKcw8bE6jVOCCejmlWESDDh7xBoMhGcjwuuyDPA6c/Q0Eo51V1S+eK3hvv7s3YugcIPxML7DWInTS7zurQ6RpFX6yydHW4pqrA1s2fmYMDt37afvDBqy9daOZ5bkrx7Gkun1dPDY59qePau97fWeuv3H7DFREBPZJm8ISJ8NH8KGjNxoLuY5ZdsgT7wvyx3pryJweTCRQuLs6diKcAZnhAUQyAhgUCmH7THBq+mU8lOpvufGhH9fPPxEMHJtmjBfYKxOXXL/OkTbJaldgz/zc5vbqoqADoY9HLpQn59fevu323jfsWfe+qunHbvlJ28WfrQZEGHA3yJM//+PrGT33/qn/FzUfcePXsXhJ/wPRL3/AHA0/jPuvSrAN4J/NUL19+VFxgAwmROspfUPgFJanFoKY3SDSewBOJ33TfddfendTt0RUHCKZqgSmDeO7qC4pGWeoC4gvcCtxukF9RoA53dJxQmFY2bbjmgd3GPbNvWH5sjGceAIJUAvzuLcNadC72SaDEH+pkB2PfaLngum3gr7jpiisnJPA92ucKsZZ91tZx/qVs1ivbncHqli2jt3i9HBMTLIGNWJ2BgPFZzDtVBx4YB8CUQFy3bJkw4FPvjgvi1125xdUIUc+KFP4jGRn5Y/cNuz5Jy69fJkDELvPmFywbTSRrSmpqQffY0A80aJwDKViV7wnEtP6Rb25Zdss6AAAM3rbi91JR6Pi8skIw1txxROfyO5y91APPJC0wZ86Ci1RdK7YM453e3s79riegY44pgbjmojMOH8uVnkcFuRWUGABAs04OAtDQcPG1PbuycWl9PTeBxy8zXeLtAEBh3uxa0L655QTs9b4JTOPC8fGRc70+3yKB4DMHl3//pdpH76jvnhhe4s7x11i6elh4Qti0L0OJSeJiRpHX1h70tqppR1I0/n176+ZvzSjhMxR2SiBesHKpNxGSnmJKCk+JKDrAGrnCm1Bf3NUNi5qVK/OiLnzxKGOfI4QDVTU1Vf2Dm1uXsrH0P523duWdN9YORSdeLJtfM290ePjUUZn7TYBE39I4XF1cURJVRke/1nPFHVsy1OcA2ScsUF5V24gQmsuzzJuNDR8s3h8NNCUQO4aYe8vyY7ci/YdUMHCowHJ9Xp1c2njlbX/c2Uhfuuraql4R3K8GxHkKA8s8btcvOGL9BiT7Xtt5q6zyuhUPpr3sSouiVlMmeY9mqHViSRjoqeQaPJS4eh9eP4Jzjzkmx/b7o81r913fut0Bx6ndbDHMIW2bNmW9BVo4PF/kRfPccF7oByPDI7k0hd7saGs+AOJPOmPe9y4/Iupn12ksDYqKigaGu7Z+YXDlPX1H3nOPayAyMkfH8PoEi05mAtKoxyM9HETca3Z/X/uGT8TNB115+QPJYs9qg6XvVMaiOYGcnIsGzMRggBOvy02QN9+/Pku1gT+hwPxDDn8oktK/ydD073sa3l/xWb+lFh18+Co5rd1AcdwmRYld0d3SstsdncnIVl095xCLwB9CCh9NCGFSqQTgOWZ1b2f7g5PhM1Nop/wm3q7gnLuvfi0moa/FbRNgxDzt0vXL4yr9dd2yVyKWKmVcfEnY6/uJmDaeDIwZvX+54YZ/S7JZdNVlddrsvH9uHujrpgmGOTnhMk84+LY8PLqsLE51ZDPDy5G7au7cbzI8e2U0lv66AVkQ8ocAlZZPa2hY91+fpePmzzukLSVr1aquA5dfiggiu27ju++csnMD98nIU1Y2axaB8GHTMo/lRWnbca8kud5LJRJ3b+1t+81keM0k2r0G8eL6pdwA47/V8rquG4xEQX5u4ctpBE4ZlqMgv6II6PHED7hh9Sf9q+t3dJf8pIHmrlxeEy/zNo9TNkA0A5BmAZ9FnxBqHvzz7qr6HHz0kd+IptXDRYt9qeGf65oyMXplbe2caFJeznPico/HB4bGxlOAd72mq+ojqd6mNzLhkU2aRQsOX6ok9S8wHHdKNB0LYhoAwcX/Jjk2dp9t2x/09/dn1Fqhuro6aBjWNwTRVZ9IyWVutxfIaTWKKOrpxHi6fny87WMNdbKpw3Tgtdcg3hYfr1gRjtDarYHiwksMQNITpi54y/Ob4snoT3KIvYFV+j7c8Cnl/OesutCfKs4ZTLpZ1kmFgin1lZCMl2+5efc3QHLnzW4wAZzHpKleF8PfTmPyWlPT+l1lg8Hw/PmCZJJzeEG4Ja0YhbquA8sCTTTD3q8Zxh9HuhpGQYZ3xbLptMMqD3O/3/l+YnblohMwC75jAfsUw9QZGsGoaWgv8zz/p8bGxm0N23f1zM2vKLJc/LEMz10gy+lK07bDLMv3JpLxl12S+y/tYe9r4I03zGzKPB15ZQXEjmJHrlo1J82QZ2mftIAW+A3JZPxG2rA+BHnJ+KcBeNvY737X1ZfLvQELAwtMhkbxgZF7ilRwX+tdj+62nkTxnDmv2AR9gyESzWLG1jTlbzxP3bm5Yd3H0vwKqqvPFwX+Wtskc1IpGZQWlmuDgwN367b9zHBv67TJg6irrguaIr49nkgcz7JssXOrGEIox2LxCwe3dv36k+ApCZbk0RJ/Bye5LxiLRLddocc0ei+d1m7p625wbJDRLZPpCMrJypQ1EG+fuHTpyd7eZ16ZdI+L8kvPvUHxslcLAW9QkRPiYP0T/9bo5JPKhUqrFgjI/VsAUB4hFqZYZFnQfM0Q8GloZIR4CwtfTaVSX3XqItgGcbzaEPD4Vm7+8H3nOvm0fQpLqn9OILiQoTnI8JxT+yFl6/op3R2Nf3GErqioXcoy7NPRWAxI7gAQJBGMjY6dPLi1eb+Nez/NWVkH8VSR8aXlFxTJHFxCEOj54P6nXp4EHzhrzmHfxhj9MqWkaUHiga4pH0CKpk3TnIOc+xaQ6jUN4+Ut7ZtWT4JvRqROsbzOzs6s3VTePml+SeVCj8vzU1aQDhobH2M5mkn7/f6meCxWqGlavt/jJQih5EQs/ut0Srl7ZKSjOyOB90OiaQPivbXtQYsOO2dsfPwYTnSfqhmmCyMKWpZTxUZsSKUT3x3qatywt3N8cvwRXz7y1rScKgAYvECZ1Nsbstwptbi85qu86C6CCDyFARX9128AAATfSURBVASKogDbsgDHcSAVTz7HccLjnZ0b3822XjON334DYsfwzluR4f0nGjY4S1HM4zTdZCmKjrM8d1tvyztZK3E6d+6CxQTaSxVNOZ93C0BOpwc4jl1j6upTnU2dWStuWFBVtYCjpQslSbxifGR8G3gxpNrSiny/Ktu/3t93HTL9Mu1XIN6udKi2VhJV7nsmwct4XvRatg0wAqMpOX7p0JYPX53qPqxzwkYx/FXEtpZaljXHhgCMRCMgmBMCxLKBYVgAQ3wOB6y1zc3NU2694K+sdAuAWimKwiUIUvnJZBLkhcMgmUxfHVMmnhvu7NzWqfPA8y8L7JcgLi0t5Xp7e9VgSV2emxeeNXSjDkLiCwS9JBEbfZNA86ru1sbGTEFQXl7uoTnxW26v567BgcEip9CeLMutlm2uozjxScsmF/u83rM0zeBM3QAsy3zIYvq2VFz9a2/vpowXuY7cCmHzeAbeb1n2qSzLAtHtshKJxHpi2it7O5rfd7p4vvE52DbL1Df7LYh3NkBx5WG1PM8dpqSV6xG2Z1mGClxuvlVRUndyAvtey6ZNn3rUW1JSdbYoCRcBjBZHo1EYCuWkxsdGX2V54aGe9uYdjVVKZi88wuv2PKak1YBtmkWmrjsVIzcSy7oHY/B2e/uHA5/mmNLSqgUA4eMEt/T9VDLptMJQdMNsgIj8squ5aUfzmMk49/NCu1++iXflvJr5X1wEwf9v7/xBm4jiOP7eXa73klwuMYM3VGpCiin+aZUW42SL4uKiOApOOtiCa4dWqhR0cdK6iGAHRQfpIA5FHURUpEPEpaJ4YAkdorFJm17u3r13905e0KLFwdAWeuTdeu/P7/2+n3vc+x78zjtGKb0MAEuqSAHYbTyDAbyuxzrerT+UZXp6MgHxJ3YaxulyubyDlzx1HOdlwNi0FHiP+U6/bh4pnz+8m1KyV4rINxljOVmWmuVRCcUfJAhmXKd2408no7+/XykWi152z4ERRe4YJsTdF41zS42a2CWTUiR4vfBp+3jZ2/WhaBuIfwtwaGDwXMO2p4LA1wBkshKBzLatOwvmlxHexjCMOFTQFYTQGd/3c/yjA0KoBiAc83Fj+n/stEJhaNdSrX7KcZzbiUQCUN8DfBxd1+cQUp+/fTU7wecaOHJ0nLpguFardvJ23H3QU4lH1jK5aJpzLZc32K6QbXVcbQfxr4TKmVzfeYSUWwB4qktws1i0pmmzlNIhjDHCGMOuri5Q/f7tqmXBqcXFef5uy1oRhO+01WV/VIrIowGDuoKize6rVuNuKpXsDBg7aa0sg1hUBcQlczENXWvUyy/+scu3Mm3btW1XiJtC9/b2xis1azKdTl2wbVunlHKQm/eIS+5JkvTE/DzP3YwNXdn9BSMuq2MegINLlWpfKp0GjDF+OASqzN5EkXp/qbL6sFL5uBn1jzcUaxg7tzXEAAC5u7sQp0H9eDwavYRdnPOJ+94P2Mxi6euDzRY0mx/Ia1ryrN3AJ3Q92VOvrzyFHp40zSL3lnl5i5Z2+s2OL6zjtTvEa7pls1mDl2CilNJSqbT2J8ytEDaTOZjyfRhLJNwfG/GTtyK2MI4pIA6jaiLmvzIgIBZAhD4DAuLQSygWICAWDIQ+AwLi0EsoFiAgFgyEPgMC4tBLKBYgIBYMhD4DPwGKAv1JbVCJRAAAAABJRU5ErkJggg==;" vertex="1" parent="1">
          <mxGeometry x="480" y="320" width="158.51" height="120" as="geometry" />
        </mxCell>
        <mxCell id="k0PMzmDsmBYJnkLfqHaI-13" value="Intent Extractor Agent" style="text;html=1;align=center;verticalAlign=middle;whiteSpace=wrap;rounded=0;fontStyle=1;fontSize=14;" vertex="1" parent="1">
          <mxGeometry x="480" y="450" width="158.5" height="30" as="geometry" />
        </mxCell>
        <mxCell id="k0PMzmDsmBYJnkLfqHaI-14" value="" style="shape=image;verticalLabelPosition=bottom;labelBackgroundColor=default;verticalAlign=top;aspect=fixed;imageAspect=0;image=data:image/png,iVBORw0KGgoAAAANSUhEUgAAALEAAACGCAYAAACSVmvQAAAAAXNSR0IArs4c6QAAIABJREFUeF7sfQd4HNW1/y3TZ7bvatW7ZEsu2BY1kMSEhEASajAtFBPAgCku9JJEEHoJAQIkhACmJAT/34OQDnkJBDAQx9hIsnqzrC6tts5On/t/42A/Q2y8ktdEMp7v40Ow5557ym9nz7333HMgOPAcsMAMtwCc4fIfEP+ABcABEB8AwYy3wAEQz3gXHlDgAIgPYGDGW+AAiGe8Cw8ocADEBzAw4y1wAMQz3oUHFDgA4gMYmPEWOADiGe/CAwocAPEBDMx4CxwA8Yx34QEFDoD4AAZmvAUOgPgjFxZWzKkUMBATicjg8PDw2L7z7GKqrGxwEcaU0dnZvHHfzfP54fy5BvHixYup3t5eSjWZr3Asd7eiqoDn6H6LmL/d2t32eLZhMGfOHH80qT/s94a+qulGgpj6W3o6+XTfYPfb2Z7r88Tvcw3iylm139E08k2ak45Lp2UfzVCAmBYQBW48Ho0+K/D0r7q72/65t4AoLy/3mCZ9CcvyyyAEFaZpAwghIMQC4XAo1t+/5UWTIncP9fRs2du5Po/jP7cgDhWGb+AE6S5CWFs3iCrwvGAY5gPEsk6iKabSNk3N5/Ew0Xji5K09Da9OFRylpaW5mBGfN03zGJ5lAUIIJBPxNRSitgZDwVsi0aiJaZZKJBKdNrFfGhvacvNU5/q8jvtcgTg3tzKEGeto1TZ/UFSUVxuJTgDbpgYxRd3d16w+AUCnFi6uKudY9z1et3Ta6OioEvIH4fD40M0sAr/ZurWzK1OgVFZWuilevNowrG+ZprkIAShbltUOLPvuvr7Olxw+RUVFZ4iSbyWimLmqZkgOwFOyvAYQ8Bgw7Z7h4c59GJtnqsn0p/tcgLi4uNgHofhtRVNPcLmlL1rI9iVT8WZREt6BBL64RZLeAhs2GNvd5S+oLCSqvjgQCF1j2/ZBtm0BAO11iWji4omJvuY9uBVVVNd+3ef3nb9lYOAMjuMAy/Aj6WTyQVO1nhkd7RnZeXxdXR29dev4iZwonEBsdAbLc5xhGMMYo7/EY7H/ioz2vjL9YfSflXC/B3FJScXRHk/OCllOn4QQACaxAaLAX1VdvoxHaEtnZ6e2OxcEg+XVoou/RDOs0wVBKFR0dRMv8JvkSOq2kZG2nl2Nq5674E4Cybkul7twcHAQCLz0tm2bd/Tmhf4C3njD3N1c4fB8kWLNb2KKOhdCcBwAwKYoSjZN7T1W4J5ob9xwAMy7Md5+CeL8/HxhcHBQmz13/ipM6FXJpJzPMJwZCPi08YnIjxMx8+6xseZUZu+PSjYQBscJkviY5PbkRyIRIPHSKxokF5FEDA4Oto87fApLK7/sdnuuAxAcZ9gWGh8fBx6/78FeYt0Ampv1zOZyqBZThUVjL9EcfYrzX16v18Gz2r914DKW4l7t7988kTmvzwfl/ghiqmL27As5Trw9EpnwszQHtLTWKYquV6JR+Y6Jic7EVFxbUD672rTp1X5P4PxoIsEBAkFhUeEr41u3rErIsaMLinIfNwyNdd706XT6d5qm/Tgy0Pc/U5nLGVNQWnM4seFNhJBKmqZqGIZREsnEH4Fh3uZ2457OzqnpMVV5pvO4/QrE+SUVX8AsfXY6LZ/Lc4Jb5PiEpui/UtTU2pG9ANT/OXAx5ckZuNDl8V3KsfyCVDIBIDQaPRI/L5GMAY5lOg3D+DG01F/29fVFs+B45C+oPNTW7TMomjrB7XZXxGLJtCjxr5mG/v+wlfjv/v5+JQvzzGgW+wWIS0pmldkIrjaJ9XWeF8pVXcMMRQ8nUvGrbBq9HuvtjWXLS7W1tcx4EhVBSF/M0Oh6joFA02TZNPVfUAD+rK+vc08Lv6mIgoIFNTfzHHcDQFBwYnsIYVrT1YeJpbw9vKX791Nhur+MmdEgrqurE5JJbYVhwxW6ZoZZSbA1TVMJBI6j2/o7mmYDsO1GN9kXDistP+hSTIHFkDZv69y8eV+Ad5vYToyvWq6LGZb+IUDEhTFWbGDzDE0DFlGqJIn3fPCPN+r3hY4zgeeMBHF5uc8DoX8ORTHPJBJqlSB5Ac8LYGBk6DWP28PolrnY7XH1tW5cVzITnJCJjL5Q2RUuj+8RREGgmvEcaNN35eTknEdMSMciMcAy7NZkKna1xhqvRbu745nw3F9oZhSIP8p1qKNZ+sxQKOfK4aFR7JL8IKUY/62q6mumRj1vIu1+lmcuNUy9cayvbf7+4qiikjmXp3X9Tt3S2eToFs7Ry19QerjIeW+0dXuBy+0u0nUVIoTfMTX5Fgjpnp6ejZ+LY+yZAOJt4UBlZSULEPgBwvhkXdNrJEkClgkGNVX/HoTs71jWjDU3N+tF5fMf10zjUpdbaO5q2jBnfwCx31/pJtA+h2LxnQzH8gPdTexHekFvbmmJwEr5Ii8+kE6nDxcFDhBCunVVbRYEdllLy4YhAAAFANjtHvVMt9G0B7FzoqUoyiIbkHt1XV8kCIJk2zYwTevRhGneOtz58aPZklkL1ybi8dO8XvdYT+umnJnuoO3yO29i0eX6yXg0AsYHOv7Nb77yck++FL5AU7UHeZ4HsfgE4Dhu1DaMh7u6mu5yNpv3F1t8Uo9pDeK8vLwSimUeRxB+naZpRNN0KpVKfehxue9uamr63a6cUlA66zFMM5dBYDds6dh80P7iuIC39CrM0bdTDOUa7Gv5VL8VFs9agTC8haZpPySWaZomlUwk50YiQy37iz121mNag7i6evbDBIDlGGOs6/rbpmE+0dfX89ynOaKkctaTNsAXKmqqZ7y/r3w/cRr2eUov5CXhXtEteDpa/rlHv5VU1ixChJzvdrkuSyQSNMsyj7a2NF6xn9jjY2rs0Rj/KaXD4bDI8+LPEcZn6Zr2Fk3zV/T0tDXsSZ6cguKnMcMs9bk9zc0f7h8xsaOzz12y3BP0PmCYKjfQ14Yy2TasrKwMMaz0tmEY1WlZfn1goPfYPdlvJn4+bUFcWFjop2nmpwTAJQBTf+3tbDsmEwPnl5Q8QQi6WBTEps7WpnmZjJkJNOFw+UrMUHcBYHODWzsz9lt5dc1blmUdRWPqj53tzd+YCbpOVsaMjTFZxntLX1FRkcPx3POmCb9mQ/ByR0vTqZnwrKytfQ4hdA7H8HLDB+ulTMZMdxpnd4JiyVm5uaFH0ukU3dnWlLHfDjniqI2jo6MLXLz4QVPTxrrprutU5MvYGFNhvjdjSktLOYbjfkZsdJ4FyOvd7S0Z/RQWlVc/aZrGhSzDNvd2tu4XW2yOLRIp41KP13u3osjs8EBvxn4rn1X7djKZPNItCq92dbSdtDc+ma5jMzbGZ62AczNCM4w1DM2fbAHy597ONifHdo9PcUX1M4ZhnC/wfHdXW3PFHgfMEIJQfulVPMvdr+sKHB7YQmcqdtXsuf9Q9PQhIi/+qW1z4/GZjptJdNMWxGVlZeFgTvC5WFT+GsDodx0tTSdkYtjy6tqnAQRLGYYZaW3clJvJmJlAk5tbepkkSQ9hBtNtzR9m7LdFhx/+z9HR0TpJFN9vbWw8fCboOlkZMzbGZBnvLf28efN8um79RNONsymWWdfZuvnITHiWlFc9Ztr2ZRzHdXS1bq7OZMx0p1mwYIE3nbYvs2zjNkVXqcG+noz9VjN//jpFVY+AwP5TT3vngTfxZ+ns+fPni8lk+gXDtE6iGPbF3q7WszKZv6i88gUC7CWSKI63NjbmZzJmJtDkFZau4Bj2fkJsqrfn30/sdqdDdW3NH1wu17HpZPJ3Lc0tJ88EXScrY8bf6Mky3lv6ior5ObwAn1IU/ZuIol7raG38eiY8i8srbwQInM6y7IcdmzcvzWTMDKCBJSVVpypK+kKGYz39fd0Z/So5elXWVs4RWGG2ruiNra2t7TNA10mLOG1B7NxQdrncj8lp/UzM0G91tW3+Uiba1dTU5BGMy5Btdzc3Nw9nMmYm0DgJUKqKgpZlUENDB4qs7OyzaQviwsJCXhQ9v9Z04wROEH7XunlTRgu7mQDIAzJm1wLTFsQLFy4MxWLyzyFCJ3GC66/NjeszOrHLrnkOcJsJFpi2IK6urgtKLuqZyHjsmxTL/q2rveEr2TZo3QknCEmJWwTDntw0UkOAoxSEOaSplt/PeyKyoaK0lrIYUbAZGxIhTd7d7MnpBvX10z6t0blA8MZHdS6cdNYNHxWHce4IOnnXu7ElBgBYH3224++dx2fbB9ngN21BnJ9fJzBc8jlgo1NFt+uPmxvWZ/3cv+bUU/OMwtAaUJhz9JAVo9x5ISArBlBTGsgN5IGEnAIaUoFuGcDDCCBkMxvalt90cDYMv695LFhQt2RoZHQhx7I14fywJxmLJVKqJldWlM6Px2ODE/HYgN8fKDJUAxHD3kIzTHEw6A+2tLY0eDy+YFFhrrt/oH/YsCyzurKqrrurt8s0rFGfz1eoaZo5EY32B/zBQDKW+nlH967TYve1jtv5T1sQV1YuDDEseVJTjRN1y3xza2/b4mwbpebsU0vGvJ7n0yF3iVQSLhpLxwmNGIhNCEjaIARBiNwCQDwF5PEJEKKF3rEJUDHd38ROBmBefnFUMw2aEOLUdwOSSwCpVAqwLAssYAHTdC56IMBRHFAUBdD0vw4BKRoB59KBqqqApvG2Aoi6rgOPxwcmJiaAKLiApmmAYRhgmzYI+XNGI5H4F7u7P/yP7XxMWxCXlc0Nh8PeF0ZGIsdACr/e3dGUUe7EZIBec/a3qwYl9qGiQxYcO2Go5yUTcq9Is6xk2TRK6zGG5b0TxJZpr+uO8XTssOJggGrpTfKgvn5aX/U5+IgjXxkcGDxJEMU0x7FRimU98Xh82CSG7nV7QwQBFwC2bJq2rKsmATYxfD6vEI1GEcuyvMsj6TRFuUdHR0c4jtcRgoUIUjTDMKl4LK7QDG3JcrpA5EQQG4sDSRAn7LQ1r23rxsHJ2D9btNMSxIWFR/Beb9KtaeQFG6JjDN1Y19fbmvHeaKbGqTnnjEVjHuphrrhgvm2jLw/eePcmJ093yZIleO3atdtjQxBYsXw5leu5S7e15uimrUeBjz5bvHQp98Yzz6jOfLVLljDNa9fuMtbcOT7dme7TxmSqw67o/Dl5cY/X59Y09fLBLd2PhWprpbHmf5XtcpKJent7t8kMFi927t6B7TXinG287bXpwvPniyMNDbLzsXPw1PDR39toPB47L5rSOYYHtmYBlmKAKAlx07RObGxc9/e9kX0qY6cliCsr5y+yLGs5ptklhBC3bdtDlmk9b1v6Q/397QNTUXRXY0rPPLl03M89G6woPVxOJvxj9Y/tsj5bxUXnL6MqCh8alBONlq2dJLj8J+mKWigIUpFqpOMQAyhQFGXbdlpPazxCwLJYykpbpggplMQQYSSbmIFYSRuqYOpGmqcYQlLa3xJN3a9/WqHBqehaVFwaI5Dx2MC+YnBL56NT4bGnMXmltYRjeWATy3mwE14IghAxNfXE1qb16/Y0PpufTysQl5XNmsVJ7kslwb0ymUxti82c+AsAoGGM0gBYQ9FEdE10tP/ebBih/MxvHzwREh4sr519VN/6Lvf4U08ld8V3zgXfOT8e9t7omV0h9gwMnSQFg0/yLvfC4YlxYHHUtsosDAQAWQTYprUtjiQUAjoiwGYpQHQTiKoNOIoBCrEBQRAA1QBWQtmkjaSOAw899LFyr3ur2/yDFhLDQkDVtGt7Opru31t+uxo/b+EXSSKVApzAPg0xKudY7stDQ0PALbk7eJY+t2HD2+/vi3l3xXNagNhfWemmNfMGluGvZmiOMQwLEAJihJAO3TQeVNPp0uLi4u/H41FAM9hWFFkwLOOqPL/3qe0/c1MxWPmSJcWjrL0mXFI4y2fhb/7z7h/tshFM4VmnXskuqLlviy7/06TwCgrT9/KYyTMQqoE+j2VAiKFhAYpAmQFIRAQAGwIL0BjHFUXjGZb1QAYYqqbHiMFQwrayEUAbjQOPCr8aJ8bfsrlYLC+vShFCibqlXzLQ1/XEVGyzpzH5RdXE5w8SC9g/af3wvZUl1Qf9HiF8HLBswHH8ECb2wqam97P65dydTP9REJcXzp4HOHyMaujneDyeOkAQkGU5AQDeoGvaT4cH8CsA/GtPU8qtDNGWfhHP86fTDF5g27YeCgX04dHhGxECf+rv6urck+E/+XnNqaeWJALuNcGSoi/LI92ezkde2GXFzNJLL16aLvY9KnNsv7z6h7MKf1Tvp8d1WvBzxePEVghC2DZtmrVAgqJoyU7LuomRxVOMpBI7aeqA4S0Ly9iUgS/gGtcTX/GFw/fKkSTgZXhI3FQ+yCaIi0tLNArzDKaoFR1tTQ9P1i6Z0BeWVBOIEbAI/OFgT8v3nTGBvMq1+bm5p6USSYCAvVUQmGMbGze0ZsJvb2j+IyAuq6491Nasr5umfR4r8JU0w2xrxJJWlD/TiHpRTaf+MjDQ2b8rxYqLq8pthE+nKPp4m5hfckIOl9f7z/HxyMs0Q54b7OramqlBFpx5Zmkfh39WdvCCxSPjg3nhQTm54YkndlSM384nuGLZtaQk5xYTwC2hntghnY88stvC3JnMnX/rVSfRfu8rsm4DPUkdlqivX5/Jxc9MeDs0ZVWVUQgYLwRoRVfHvgFxbmm57vcH6HgyfcdAx+ZbnHmL583zJUeSd+eH85alUylAUajbssiy7u6GKZe4zUTnzxzEecWV5wZ8/scjkSjx+/1SMpkEkkt6U07Jj9BIer2z8/2M6gdXVMwt0mzzJIDgzZimXKZpigDBFjmVekkA5r2Dg4PpPRlg/rlnHjYocPfB/GCVzeM4x7IJzgIUMm2YmIjJgUBQHIqMa9Aj+g0vX8UANOgzxso7r9o7EJdcd9GpbH7olxOaxbJM3rcG1q370/Ydjz3JnMnnheWlEWJTfkLAvlrYweLqGhtiZCLI/rin+YNrP5IL5efXcaIEHrVsa6lzJZvn+W5dV89oa9u4112o/uPhRFF59SE2QL9VVTXs9/i3LX5SieSbwAa3Dgy0/S0T5+yGBks5BRfl5xX8dFucqaQBxzN624cfbC/1tFvWdeefUTGWH/5l3MMfakgU4NwSSEZjjuG3/SPLMqBZHqQNDRg0AJU5eaB9/RDe25/+4puuOh3n+n8dM21gqtxRyY0b38syiAmFeUAx1A86Nzfethe23e3Qwop5xDkg0U3z5oHOhjs/QYhq53+hKxGLlzKYAgzLjBqGcnBXV1PGv5KTkfkzeRMXV80rhwj+l2WbCziGH7VtMmoZxk8tNfpUtopEh0K1EubNq0VJOAkC+/91Nv+bYf/NLs5+8D9C7lVWQfBIT1n+yX1jIy2BUCDIiYJ7YGioVRSESkPRhiwAbJfXVWRNRK+rHsFPvlFf/6991ik+RTeuPNkIup4Hbq9o6dwXx954491sgjhUXDCIEZdHM/iKre3t+2SLLVwwi/CiqGEKPtLVvGH7m3gniyzBpZWdL1MInYAxBi5RUFRVObyp6f091g6ZrFk/ExBX1c4/TDWttwiBtGkZ3zUt9KfxLS1OobusP2U1NSW0Zcnt7f/qpZHBA2uXLxfFfNciRTF6WA4zJqYwwVba1oGLtjBEDGtDbBLesibeuumuvWvLVV+PSo34CVbY9/yEQSRMBY9PvB16Haw9fcfhSgYyfypJ5UFzoomE6uUYZmVfW8tDe8tvV+OLi6tVmheQZlrvsTz796Qsxzle8BuqkYA2sVlBCAHLJqZpruJZGpu6AURRiKdT8je6ujZldR/5MwGxP6fkC4LH9Y5TybJ143sZVa/ZF4afLjyLbl59RsJFP6NzImaY3G/ERwffyOZRtrcgbHm9OYii6NWdH37w4L7Qu6yyhhAIgAUpwPHitlwLRVGdI2gAId4WigX8IZCIR4FlWYBjqG35GgLLP9netv7ibMr0mYC4uLz2KELRf02n03SkP/P7YdlUdDrxyv3eqtOVgOsncc32+X3F3ykj5OUNl1zyb7siU5W5Yv4cU1VMTFP08t6Wpqz3qHbkWvjFL74YjUZPNjUbqqrOcBxnAIBoWZaTNMUgjhNE27Y1jDHr7DxZhq6YpskLLPNcV/vG86aq267GfSYgLi+fe7AO0N9ZnuO9nMVsz23NpiIzhpcTTlDqEj3kfXE4KZsuKXxcfHg8q4cdCw87hIyPJQHHctd1tGy6b7ttDj3mlECUitziyQvUpgkMxBLxPggBJfFuVvS48UQsavqDwVzTMjVd000KwrSZNgGNIQKa9nzjr3/z9L/beQkGYK2TX012zsv4WI5GaSmXj8QNoiDOgoT8sX3z+qze0tnnIHYSqocj6ToC8LvOz4mbM7lPa4A4Y8C4F4KW3bLytLTAPaHygptQrhMSkfjr2QwnwuFwwiUEXAjj1e2djTvCicrjjy8Mzs3/fZKxCuhQMJBIq4DHLsBxAoirKlBNA0CWBhTPgng8DkSGA15WAPJIBBRJ7ue7Nmxe1r927ZS6NdXMO/SDZCq+EBP4qy29rWfvhfn+beg+B7EzY0HJvCMoCv2dYhi7q2W9c+a6x0YwhYWlhzESF+3eD2/oFl63/FTD5/2ZKUlBC3OLY6OJd7IJ4tLS8hS2aJHC7Kq23oYf7+z10u8cf7ghsWICwLSBoAg0YJkGNiSPSKm2ZQIGU5gTGDmRTHskgQeqaSPdVHMZbrTl4Z91TBV8ecXlGzmOW0Ah9GJHa1NG5RcynWufg9j5WbGQOI/nxPd0XUe9nV4agN23h3UEr6ya8xiF6YtMYv/BNlLnd+9njVTyb73mJFwQfiFpQhHawpeil132NoBwj1/sTJ166BeOJOPDccAx7I3NrRvuznTcznTZTBN10jfDBcUTkciYgCH80+bGhqwWcdnnIHYMU1590FGKor+GKIof6Gnc5e5EbW1dsW5rsyGCz5i6neccJ3McNyHL6av6t7S9MBVHTNMxMHTH9UtSLPuwYth+l7fgjGqEfpfNhV1OSXGKwy6RQnh5d2fDPlnYTda2+SUlH9IMM59G1HOdbS0zb2GXXzHnSAjR284qtb+jwUnE3rEnGnaKpDD20aZuncnz/FGyLAdDwaAaj8V+ranyr4a29v55sgab7vSeH153mslwTyqA5nl3+ER5ZPB/shlOFFRWpAmheYalVvQ275vcicnaeM6Cuu7x6EQZx3HPb2lrOXey4z+N/jN5EwcKqw4LBAJvKapKb23btONNnFNU+XVRkq4M5+Z8s7e3D1iWASRR/I1lmY/0tTe/ua87/jgndpt55ljJLY1hemLzuw9ObdEyWYd4vr96Sai47KWBiYTFCIHj4zn+v4LTs3fYUTSrSjYBLbAUs6p386aPxcSfKmt9PdrVkfri+sXUG/WfHgLuyQallTVtJiKVgsD/V/umjafviX4yn+9zEBcecQTPJpRF0Vjqdc65sBU33F6vpdtYfBRBcoqsqn5R4ollEsOyjYuQrqx1FNhxhWYy2kySdv5FSw8fg+h+mUF88azSWs2Qv9eRZH+8ZPNmsvP1pEmy/XTy+npUYCe+nQL4McCJPkHyn57Psr/NZjhRUFEVMyHtYWjuiq0tH+w4dj7q7LN9cS//MMpxHxkxLUYGZgJR0A6Gc8ThifGUbui83xOwUtGE7hIFUTNMmZY4KpFICBSion6fS0iMTdgII80d9PoHBwailA2w2+9DETWlaprmyXMHdFHWX/dErWfXP/SYk50HSksXcywvr5d1dW5CkZ9JDHZfkE2b7nMQb9udqKw5nKKYd03Tdpp4L/3fjPd6OR4rDQaDgOFoMDI6+oSqyQ9GBgf3ee7pzsarPP+MCjWY85wd9tVpLoqhBdqMjQ5cUC6PvNRcv+v7ctkwfv4Ny88Afv8ak+EZxLiOLsDsumyCOK+ikhDEA5qhvrd188bbt8u88DsX1DI1Bev0HI9nAhES0RSIKKzLqmI5e/hp55QtkAMMwwCJSATwPu+2RC05Og5yCovA+OgooBDedgtaTiSMUG6O084KEAZbGkUwsWzgJhQIpsn7Qmf/SU0PPbkjKb527uF9CUUuwgx6bkvLhzMvJq6cvfCIpJr+K4SQwxCpHMdxajLRzYv8K4lE/L9HB/veyQY4JsujbMmJs8Yl10+l2aVz2YpwMJKIAjMSAwHMvsWp+v2dN/3o1cnyzIS+9NarTkp7xDUm7/HoOnv0LEZ4J5sgDhSVbEG0mM+w7FUDLRt3LOzmnnVRWM/jb0+6aQiCoUNH44lxYCGNE4Ucw7aGdMv0YIgRy7ApfyCQOzI6OmaYOhbckiudTI24JMlH2UBX03IKM1ShqimDNKZ4xdQYwNMTkIJ5jKLLeRazURxJ3rb5wQcnttujpGJOs6anazCDnxvo6px5IC6trDk8pRmve71eKZ2SCcMwLwHLfry3s9GJe/9jT9VF59YMQ/OxvAVzD7ZDrh91trd+pSyn6AumolgWIM3AMt/Emv784R/0fZDN8KLk5ktP0fMDayImdEHsO0GjpT+DLB47e8J5PZiTSniOv3yg7eO7E3XLluUBAMbbadVNI4+BLcs2GIaKJRKWL0QhogkQOf9PkmjKjpiEz4exeBz5TdO0RBODOACYoiznYmzUTtIS7RVUWY45/8+k0hRmsJWvi7jc41F/W1+/I6d7Vu3CdoBIVSqZeH5gS/fMW9iVVM47wiDWOgAxcLld340NjPx+ZKRr9D+G3o8mzj3z5FI97HleKsw7Mq2r+TZBlJsTLzAIuFjhUCHrFYGuqe+CSOrCyPX3Zq2RYfHqC5fAivyXBlVdZzn/ccEx5d3evUzv3NmWwfz8KMWLXppnl29t2je5E5P13azaut5kKlXMcuzzPe0NM+9NnF9eexRA+K+EEHqoq8mp8TUtapmVXXh2SZRDL/iK8uYbI2a4/8EHtx2pVt56/QljunyB7RVOQW4eAEMHAc1+Skya9zXWP7DXcXv+DZecpeb6HrHd3oCu0Rei6PhvU3ub4rkTqjyh0CgtiqLAMcv7WtvXTBZw+4K+orquSTfz2yIKAAAgAElEQVS0ORRFrenp2JTVutGfycIur3zuwYBCf7dtwo90Nn5sn3hfGCxTnk44ERXoR8tnzz46Ndrrav6o7kRtfT3TXF+vz7ll5W0xHpzH5npLIvFYQsDMWlY1n5SHI98RGa5ajic4t8TzBBIYSaZitMSDhKpaLKYsSrMARdF5JmWPKUqauDCPaJbDCcukNbeIPPMqjxxPyBbN+LGxufFdOjWueqEtyxbII4DqByYByCaUwPJEScg0jTiWE3lzIj0BMYUUyzQtCkDKzfOQThsv9j33389vP84PlpX0shRbAmzrkoGuj992/mRhmExttTd0TvGYnpFEi22YZRji3/R2bPz23vD75Nh9DmJHgc7RiTpDt99zbscOSzQDPqrQmE1FpsJr1kXnzU95hacCwZw6bUJ1t91778fqTsy7btnJUZ6+Uffzh1oSC7wuz3p5y+h1+ZLvUcswaiNj48DnkQCkoAPebdebokp624qeNmxAYwoQGjlgBC5CA9UwgYowUEUGjGECTMtJXvQAl2GAcDoCWFsDKsUCm6JBMiEDj+gGyDSBpZpAwCKgKArE1ThgJRbYNgDEUIGIAbAmkg+bo9qtm3/xi20LKeRz93oET5Hf5bqsq7V5x5X9I5Ys4WGIuSCO4EjctglkRDdDaCUZjesc4kwT2gLmKEUhpk0xdEDT1QhDaEgsw8PzYlRW0xizNI8B0sy0ChmBRUQCruGx0UjQ7QasQcqtWLpTtPFYKeY2v/bcc9sqCDlfnP9574MPOYadY1v208O9rd+dir92N2afg9iZOFxaczik4V8Nw0SR3vZ/FV2YBs+si84tG8X2r4rLSg4i43qw4f77txm9YtWFlQYE19A+6QTVzeVrPAJur/cXyuDEs0Mr7/n7l25eXRRVlRyBZQzD1AVCYzOla6bgcUuyqaYRYChsmAgTlDahIemqYbhsDClGZLYaqSQIek9KsczVvD/sJiZ7DZyY2CQNdadxIm5AyaumLZuBCBEGI2KkdA4CkHYhidI1DUb1tOqVGMEGtGFYCcLaBsPJya3Na/+woyq+lJs7xtGSwDHUyv6u1p9vN/XB3z1nVirAr4lyyI4hVCP6AjA2HktRAGGaYRQCgTcdi6XFkN+gWSYvmYwP2iZxigx6jZQyAgBx+XPzpHg0GrE03YUpOg5o2gshVC1NlcvzCiuVsciI14KvUX2jVzR8BGJn/oKauR8SQ59vW9aa4Z6umRVOOPVw44ZRCyD9N0KId7CjZdrExJXfPesIPSA+klOYXzcxOOztvueJeOEtl1RFFPXecFHBbA3as8OlRcA2jZvl/tFXcyyl693V/4qb9+bJv/XmE4Si3FdGZAUZBvUlNbEtiy1r64RZiw42JmJpyi2J13Y1rN9RAeiI884rwCXh1zoS42E6J8dNSxItshxIJpMEcgx0TkxphAlDUzA6HjHcPjedNgxgA8uUBBdlKrpGQ8g6mUqqaVoIIQxNBIgFDK/PTUeGRxUvx/F2JP4WOxb99sann952lSu/rk6ASaWD55h8jmP/0PSP97+5N/b7zMMJZ8LKhQtDhqqe6Pf76Y3vvLPtVvJ0eJyFXdqNXuDygnNcXu/VQ+ORfBfvqZctE3MBD0hr2mMByfM7biLe2HBV/S7rYExaDwJg6Pbrvm24XM8kCRFZj//ktNHwB3DJv9e7mDTvjwbQgeCoO5jr5hn+yv7G9TvexM7Hx557rrj9Z/5j/J1k/d5epvejAok7f1a37ARhwxO//bcSCE6oCEpLqe1FFXceU/+/R9j1O30xq+Ye+mEsFpsHEXh2tK99Zr2Jp+qIz2JcxQVnFo1Q+i+FssKDYcDTNTIyyvtc3vKSgqKGRDz1K05HzzB6Wt20qj6WTXkCd954qiFyL8kAIUp0f0Prj/4lmwlAwZKSMcBJQcMwl8e726ZFFlsot6yRotm5LMs929u56fxs2vMziYmzKXA2ec2+9MzSGOt+Mvfgucc0RQdBqDAXSJB+k4mnfiSMjv9j/XX37YvuS1C6ffXp/qKSF0diSVsD9LEgqmT1elJl1azRhG6FPEHPyo4NG/bJbefJ+iFUUtrmEVxVFIAvt7Y0zKzdickq+1nSL7zkvCPGMP2wLAo+PcBXuALe5UBJ/r9i5LL/ccVNkX0iS309CtGp0xSGeTRNKK/bl39GzIa/zeaJXVXVLEUhgLNs+7Kh7o7/ePhWV1cnRFV9va2btXI88czY6MDMSwDaJ2BwClsvXy4NY90rUK7I9oOKSc1VX4/mDg6uYgK+KpOlXyKaMth4194fZuxJhqKbrzhDC3rXyBRP28D9JSUSeT+b4URBZQWxIAcgJjcNtTbftbM8tUuX5PZjoGMdSFEILIHCJG1YFKCxyUFEA4wJMg3TZjgG6apOEEbEJgzmmLRlWgw0KAJpw7QRxULTMIFlQWJaEPGskZYJ5gjBvGHEomvXxneet6ByXgdCqExV0s+Pbe34fMbEzl7j2znuQk4SvATDUyJyQsc+39dgKG8xr5p/FnqHTtrbQn97Al+2Pi+7edUJST//jCl6/ZrBH6WEw+9lM584p7RsAGAhn8HUlf3tH/5ku9xVp55dDityfj2EjKAUzi/VIVKcSqzOIQkhJAYQdLbLbKd+MnLOWiAglm5AimWIoWrQIXLKe1mGSQzDcP5GhpKGACMCOQ7QFIUZRSdBE/yFdPec0/DTn+5ILSiefXAjIdZcwzKeHe5s+vzExHVXnl+hMPQZqksI8qHAITImeUlTd1M8FxoZHB7Abk8O9Phpjwl/G+5PneacsmULaPuQDwzcuPIkmBt4PG6TIKI9J2nj0dey+SbOLa4YoCgxn6XZFV1t63eUdj3ovEsLEoXeF3rUeEAqLZ+b0rQETTBLI0wZhhG1AHE5Byo2IBaxbIQoDAWOR/FEnLAMa9E0jVOJuEFh2uJ5npbTSRNjhGmOpVTLsmw5jcIuny0mU38Np/Tb3r33jn9st2NhdV0TRcE5ciq1Zqyvdf99E1deeSUrucyvjiTjCylOqEnalsTnh7+gQMCYhLgZkQcaJCCtKqAwv2BwcCKab9EMcFv4pcTF15+ZyS3qfQjOjFmHbr12SZKl1qiYBhzvP04dj63LJoiLSqsIoiXA0My1Hc3vf6xSfPWVlxwUwdj5FatV05oKADYFjD2KaUZsw5AYgXHK+iQNywizLBMnBGFDVwQIqVEAbbetW5oNTAUCygtMc4IXBCGlpSmbZeLIsgOcBRTRBEqJqTa9/fjj0e1GKa5eOGDaVr6qKWsm9qdwombZOXk45P/quJz4Zm5O3hfTCOQnGQwUDIFKCMAMC0wbAI/kAjzHASOVvk2NxdZNXH3ba4H7v39DRE5eDLxCuMAfvjz37aYXdlVbOGNkfYaEebdf++0Yjx9VLNorSHln1mD8+2zmE5eWVYybFB/AFLxiS0vjPikoOFlzlVbNb7IgnGMY5rPDPZtnZjjxlasvL4khME8m1kFIZIxxNTnHYNh8FeMaweWWOUBXUJhJSeGQu29k8A2vL6gYSvptSjUHgG40QBtZZlwZHr7rrrHCm28uGDVid/Dh4PlUyPdLdXDoXvmGe5xqi1m79j5ZJ2VM7+xOmKOngnDg+THZIpxQeIKaG/xbNmPi0vKyhIEZF0ZoVV9bS+Z37DJWYnKEzpV9C3KNsqqV8ZL08paWGXDHbkH9Sq8G7ELVIEKhL7i8f3CoK0XZtbTPfYwvNzcUUVJAwQQkbQMEQ3mAA1S/S7Fa9PH4Wy5E2ZaqvG4q8c7N9f93M2Bns5Vde/nlE250WrC89NCBntGvH27y770xzXvLfUz+G5efJkvczzXBzZvY/y15YiKrBQWLS0tiFmY8iIbXbG1tf2BykMs+tbMof29TU6NpgRoE0DMD3Zun3xbbsdecKw4QXMvlBi9P2JZNeT0XpABxzqNsSrGRadkgDS2QUjXgllyGIAkJzHMPpNV0t66ZGykVRP0TejzThdms763cEvXRnvLaucpAQ8dRW6+7vSv7pt93HCtWXXqKluN5RBU9BSqQFs9is3vHLr+oMGZRrIem6Sv721t37E7sO432zLl89kGbNNM+iJjmmsHelumzsPvqVcuOGrS0k+MshHGKHMoFfSWAYTiDwiHCc8DpcwbSBoAEbPIFAz08pNqt0cQbrGmnKVUfxQYcefuGG2KTqX5TefE5J1K15S/B3CDrVLIze4Yua73prn1zMLFn30yJovLma04ywr6nxy0iQEo8LhUueCub4cSiI79AhseTgELghr6Wxnu2Czn3mGPCEwK1Cvu8pXFZCaiG1WcR07YsLYwoashGEAPDwozEA1M3WRs6u8QIWqqmeQIBMz4ygpAgOFtrUI5G81iO3er0hnZLrhxM8fHkRJzkuFwSVtW38znuqXfXrt2WGurcdiZMrAtBnEuz1G/bG94/eUqG282gKR87L66vp5SBjh9Y1SW39FoKkBkEWLf7f7sXQNPt9Y0ouvaGSPHrQTKddhH8X5svWj0x/777xIZrr92W7jjVp/Tqy29V84Lflym8OYcTf9h1yeqXJvMlyGTeJfX1zNp9t10HK+/4wZKtpvJjnRd8Hm/+2RWEZLUCULC0OGLYrCTx0oqBto07TuzmH3tKDled+yrODZYbiA6ldQNYyASS27WtgKBT0V0URSCrirNx7DRX3FZbOBqNAo/HAzia2fa3Q+d2u4EsO81lKGBoBuAwD7ABgA/RIMAx63s2Nlyw/ldrNm+3d0nVwiZdN2sIsZ4d7muePuHEkVctK5ZL838ZkbhDIthg0rYFAEbJvEDu2yitPsrJZltRf6I3W/Hq3OXLa9oZ+zpcWLhU9Ph/AaOpW8auuy4r+Q0Lrr22athMLrQknItFusBCxCSaZUmW8AcvEFo31WcvCYi54dJvo1DwUVUDXm9OxZn5/Vv+kGkolcmX0F9WHLUR72Uwe/loe8Nj28dUHn88y4viibpAs7JqAdrZ8bEhUU3N6b+BTUIoTVV1mmEQhNAiACDDMCyKQgJDMabzbLvCn0pBfzBoxGMxiBkAGBZBymZoIhu6ADEtADLQsPZXTh+WHQvt0soFzYpm1DAUfnZrT8P02p1YdMPVdfGAuAjm+H7Ul4xKrmBwWzd3M556p9gdfJqOJobar6v/QybG3xNNxfUrzuvn2RWmKC7yCd6v5IxF38mG8+dfeWVhD5AfUX28P39W2awJJRGyEEA8J4F0VGsgY6lXygF/X3N9/S7b5u5J7k98DoN3X3MWm5v37FBMMT2uolOiW3uyWtq1csF8NaXbrG2aV4+2t/5o5/nnH3us2PDaa7v8NSxcsoTfVelW50bIu7sr6bpkCc6k30jZrEV9NKYKLct6tattw/QIJ3bluNr7br1gi5ZYqvPUlySPFxBigVh0HCyaM781tqX33gBBfywdAxNT+qlesgSLZa6fsfn5p7n9gV9TMeuhzquuaZ4kgD5OXl+PKiORg2I8WBXl9XOF/BBQAAG2TQBtYEsUXXginQTOZrWf4KcrGe7uf1xxU/tezUkAzL/zmjMSyL4nZaJwTkHtRe5Uam3nVVftVW+8nWWqmFWdTluARxheNtDW9h9PAKqtrZV0zL+fiiu1PMuu6enYOH0Wdp905lE33OBTCLFJkXvZqCqXmDx7TIKxZlmYQGSaKTqprKtCwtINq+6cdNOZuT9cubjDSj7BBYNVAuJ+lJuED2y8vn5wrwBVX49ckaE7k9j6Vu7cUglh61krqa8nCTNC20CWvP65/Xb6W3zQfWYqGp8o47zXnTGQeHrnZO+pzF94+9XfmbDtx8RQvhuxnq8VGuTNbB525OYVaIDlGIZnru9raclKH+yp6LnzmJLZ87oQoMvNtP6zrX1Nl+4tv53HT3lhl4kQdXfclBf1C4/06vEjAYdzkW6Br81d9MZoe+LYyTot/9pLX9BypW/5Kwrc1siwt/uSez6WJZWJPJ+kybnorHDSF3wgb1bld5KRyB2utPZE96339O1Ml3PNivlGrufHKU09ujSQ8+dgeuCU3VxRcmyZ0WFL4NZrTrIk98+gIIUJcB0dGxl4O5vHzvm5RYOYd+VZwL5ysGd6bLEVVta2YIJmQ4J+2dvd8J2p+Gt3Y/YpiJ1Jj3j+4X9ulsfzZGjlBzz+D8qw+Oz7p106qUTthVevPD4e5teOEBUUzir6k9y99dz+LNx1y1l2fsUoxTxdVXfQUSQWPdmTtP6yYaeqNduN5r52xa2u4vybDF151w/R5SiVWs4AO4ghrAQ0HbUwwopJREJhmWco1rINU07Jdl5hgX9CTqTjE0lQFSoAybSs98tJnUiSH0nSQWMTKdMrBE89aGLsj9la/Doy54WL+jEvFViWdtnQ1u7/eDjhyFRePXezoui1LEU/2zuTjp3n37LixETI/ZteObo1f1aV5MbMjcFI+r23v7u6YTLbYguvufKr0SL/60xewOZZvMLYOPZENhZ0pWcuLY0XeF+U8kKHpca2eKP3PLHLt3vZNddcjIvynxhLx/pCLuEbKSX+KMWTw0diE2wgJx8YBAKLYAARAgDawLadNFtzW2wtuXxAlhXAOC27oQ1UQweIZwHNiMBKqEBMGl8Yven772X6Fs/kDVZQWEpYXlAsQH6wpaNlR+OZTMbuK5rq2rpxQoif2NbznW0zoKDgMTetCA9a6R/SRfkXTzAY8EF/bzIav77ADL68YdkyczIAdoyav3zpK2hu2bcsBj/ttczHWy6p/yAbxq5esqRgJNf/JBPwHAbkVO3i3rGxXdVcK7hi1SpYmHdnihj/tLXkBf6A+L2kEZ1dUlF26GgkHrcgtm0LuSCEExSFOIqi3LZlJTVdd04tEQAIQUjShBDDtp0sXWI6hfBpxXiSH1Mf7brjjqy2iy0srfhvYoMTndxf3TDTumG4IMCyZZqaBQHLcRxlWRbUDF3mWYYBAIgAgLiu65RTCB1j7OymSTRNp03TtDHGzueGs2fs/BtjTEMIedu2484OHKYpDABUCAE8Qkh32tsBG/owhZw+TCbDUM6+MrZsA8ei8a+ODHT9NRv+284j6+HEYXesCA9Y1uNMMHiywdNQE5kPsGbeXAy1de+fU59R8/GdFaxbvey2EQZ92Vc354hUMnm239D/sOGS/ytUtzfGqD333OKtPLi95qhDzu3s3HyfqBo/3nrvUx9bLNYur5dajbE7g5UVSwWX8CswOryCYhiX3w1srBoHUwy9Fdg0BZDhM019AFCsi8E0ZUNKU9MKyyAjDWjEp2RN0ZPplAmxgE2kWEBDTjZ6Y1f/lky2qCajZ05OUQXFMddbpnmsx+MNa5rOEQhs0zQTgCAvzbGmZRmUYZAEg3g3IdDZciO6obMIIkxRVMK2bS/DMMS2rBREyOWUHrMt24YIOr3pnB51imEbxDTTFEVDGiEkA4AkhBBxPoM2FCgKAedL4TRqpDCOURRa093RtHIyumRCm1UQL7j24gUTXvEyy+9aRnE84Fj2BQjsR83xvg+m0pn+2CsuKrNKCrr7sQ648oK0PDRxVOdl39+YiWKZ0FScckpOotB9h1hRcFHa1gBD4DI6Enu1hymMOAut6ktXFfQg4zhT5M8N5eV/OSiJlzVffPHPJvtLkoks2aYpLCzkdd1eBCmON0zdQ3F0wlQMbBIT05hVbGCI0EaG8xKGEHEEAJnYJgMAhjRD6ZZpiTTDapamOb8jtEFIGkHEA8u2IAVtB6Qm0JImUSmMCLIBViAgEkJYA6YJbKeMLwVTtgU4gWWdpkyJcS3enBwczLRdccYmyRqIF99w6WLNH/h1uy5Ttsj7wy7XtUjTf9p8+e4PCA5Z9d1ykxX/xAl8Z6EtnPzJ/eNjViw/JF3g+9tWU5bpguBDOD7ywFS+DJ9mjfCKcw8bE6jVOCCejmlWESDDh7xBoMhGcjwuuyDPA6c/Q0Eo51V1S+eK3hvv7s3YugcIPxML7DWInTS7zurQ6RpFX6yydHW4pqrA1s2fmYMDt37afvDBqy9daOZ5bkrx7Gkun1dPDY59qePau97fWeuv3H7DFREBPZJm8ISJ8NH8KGjNxoLuY5ZdsgT7wvyx3pryJweTCRQuLs6diKcAZnhAUQyAhgUCmH7THBq+mU8lOpvufGhH9fPPxEMHJtmjBfYKxOXXL/OkTbJaldgz/zc5vbqoqADoY9HLpQn59fevu323jfsWfe+qunHbvlJ28WfrQZEGHA3yJM//+PrGT33/qn/FzUfcePXsXhJ/wPRL3/AHA0/jPuvSrAN4J/NUL19+VFxgAwmROspfUPgFJanFoKY3SDSewBOJ33TfddfendTt0RUHCKZqgSmDeO7qC4pGWeoC4gvcCtxukF9RoA53dJxQmFY2bbjmgd3GPbNvWH5sjGceAIJUAvzuLcNadC72SaDEH+pkB2PfaLngum3gr7jpiisnJPA92ucKsZZ91tZx/qVs1ivbncHqli2jt3i9HBMTLIGNWJ2BgPFZzDtVBx4YB8CUQFy3bJkw4FPvjgvi1125xdUIUc+KFP4jGRn5Y/cNuz5Jy69fJkDELvPmFywbTSRrSmpqQffY0A80aJwDKViV7wnEtP6Rb25Zdss6AAAM3rbi91JR6Pi8skIw1txxROfyO5y91APPJC0wZ86Ci1RdK7YM453e3s79riegY44pgbjmojMOH8uVnkcFuRWUGABAs04OAtDQcPG1PbuycWl9PTeBxy8zXeLtAEBh3uxa0L655QTs9b4JTOPC8fGRc70+3yKB4DMHl3//pdpH76jvnhhe4s7x11i6elh4Qti0L0OJSeJiRpHX1h70tqppR1I0/n176+ZvzSjhMxR2SiBesHKpNxGSnmJKCk+JKDrAGrnCm1Bf3NUNi5qVK/OiLnzxKGOfI4QDVTU1Vf2Dm1uXsrH0P523duWdN9YORSdeLJtfM290ePjUUZn7TYBE39I4XF1cURJVRke/1nPFHVsy1OcA2ScsUF5V24gQmsuzzJuNDR8s3h8NNCUQO4aYe8vyY7ci/YdUMHCowHJ9Xp1c2njlbX/c2Uhfuuraql4R3K8GxHkKA8s8btcvOGL9BiT7Xtt5q6zyuhUPpr3sSouiVlMmeY9mqHViSRjoqeQaPJS4eh9eP4Jzjzkmx/b7o81r913fut0Bx6ndbDHMIW2bNmW9BVo4PF/kRfPccF7oByPDI7k0hd7saGs+AOJPOmPe9y4/Iupn12ksDYqKigaGu7Z+YXDlPX1H3nOPayAyMkfH8PoEi05mAtKoxyM9HETca3Z/X/uGT8TNB115+QPJYs9qg6XvVMaiOYGcnIsGzMRggBOvy02QN9+/Pku1gT+hwPxDDn8oktK/ydD073sa3l/xWb+lFh18+Co5rd1AcdwmRYld0d3SstsdncnIVl095xCLwB9CCh9NCGFSqQTgOWZ1b2f7g5PhM1Nop/wm3q7gnLuvfi0moa/FbRNgxDzt0vXL4yr9dd2yVyKWKmVcfEnY6/uJmDaeDIwZvX+54YZ/S7JZdNVlddrsvH9uHujrpgmGOTnhMk84+LY8PLqsLE51ZDPDy5G7au7cbzI8e2U0lv66AVkQ8ocAlZZPa2hY91+fpePmzzukLSVr1aquA5dfiggiu27ju++csnMD98nIU1Y2axaB8GHTMo/lRWnbca8kud5LJRJ3b+1t+81keM0k2r0G8eL6pdwA47/V8rquG4xEQX5u4ctpBE4ZlqMgv6II6PHED7hh9Sf9q+t3dJf8pIHmrlxeEy/zNo9TNkA0A5BmAZ9FnxBqHvzz7qr6HHz0kd+IptXDRYt9qeGf65oyMXplbe2caFJeznPico/HB4bGxlOAd72mq+ojqd6mNzLhkU2aRQsOX6ok9S8wHHdKNB0LYhoAwcX/Jjk2dp9t2x/09/dn1Fqhuro6aBjWNwTRVZ9IyWVutxfIaTWKKOrpxHi6fny87WMNdbKpw3Tgtdcg3hYfr1gRjtDarYHiwksMQNITpi54y/Ob4snoT3KIvYFV+j7c8Cnl/OesutCfKs4ZTLpZ1kmFgin1lZCMl2+5efc3QHLnzW4wAZzHpKleF8PfTmPyWlPT+l1lg8Hw/PmCZJJzeEG4Ja0YhbquA8sCTTTD3q8Zxh9HuhpGQYZ3xbLptMMqD3O/3/l+YnblohMwC75jAfsUw9QZGsGoaWgv8zz/p8bGxm0N23f1zM2vKLJc/LEMz10gy+lK07bDLMv3JpLxl12S+y/tYe9r4I03zGzKPB15ZQXEjmJHrlo1J82QZ2mftIAW+A3JZPxG2rA+BHnJ+KcBeNvY737X1ZfLvQELAwtMhkbxgZF7ilRwX+tdj+62nkTxnDmv2AR9gyESzWLG1jTlbzxP3bm5Yd3H0vwKqqvPFwX+Wtskc1IpGZQWlmuDgwN367b9zHBv67TJg6irrguaIr49nkgcz7JssXOrGEIox2LxCwe3dv36k+ApCZbk0RJ/Bye5LxiLRLddocc0ei+d1m7p625wbJDRLZPpCMrJypQ1EG+fuHTpyd7eZ16ZdI+L8kvPvUHxslcLAW9QkRPiYP0T/9bo5JPKhUqrFgjI/VsAUB4hFqZYZFnQfM0Q8GloZIR4CwtfTaVSX3XqItgGcbzaEPD4Vm7+8H3nOvm0fQpLqn9OILiQoTnI8JxT+yFl6/op3R2Nf3GErqioXcoy7NPRWAxI7gAQJBGMjY6dPLi1eb+Nez/NWVkH8VSR8aXlFxTJHFxCEOj54P6nXp4EHzhrzmHfxhj9MqWkaUHiga4pH0CKpk3TnIOc+xaQ6jUN4+Ut7ZtWT4JvRqROsbzOzs6s3VTePml+SeVCj8vzU1aQDhobH2M5mkn7/f6meCxWqGlavt/jJQih5EQs/ut0Srl7ZKSjOyOB90OiaQPivbXtQYsOO2dsfPwYTnSfqhmmCyMKWpZTxUZsSKUT3x3qatywt3N8cvwRXz7y1rScKgAYvECZ1Nsbstwptbi85qu86C6CCDyFARX9128AAATfSURBVASKogDbsgDHcSAVTz7HccLjnZ0b3822XjON334DYsfwzluR4f0nGjY4S1HM4zTdZCmKjrM8d1tvyztZK3E6d+6CxQTaSxVNOZ93C0BOpwc4jl1j6upTnU2dWStuWFBVtYCjpQslSbxifGR8G3gxpNrSiny/Ktu/3t93HTL9Mu1XIN6udKi2VhJV7nsmwct4XvRatg0wAqMpOX7p0JYPX53qPqxzwkYx/FXEtpZaljXHhgCMRCMgmBMCxLKBYVgAQ3wOB6y1zc3NU2694K+sdAuAWimKwiUIUvnJZBLkhcMgmUxfHVMmnhvu7NzWqfPA8y8L7JcgLi0t5Xp7e9VgSV2emxeeNXSjDkLiCwS9JBEbfZNA86ru1sbGTEFQXl7uoTnxW26v567BgcEip9CeLMutlm2uozjxScsmF/u83rM0zeBM3QAsy3zIYvq2VFz9a2/vpowXuY7cCmHzeAbeb1n2qSzLAtHtshKJxHpi2it7O5rfd7p4vvE52DbL1Df7LYh3NkBx5WG1PM8dpqSV6xG2Z1mGClxuvlVRUndyAvtey6ZNn3rUW1JSdbYoCRcBjBZHo1EYCuWkxsdGX2V54aGe9uYdjVVKZi88wuv2PKak1YBtmkWmrjsVIzcSy7oHY/B2e/uHA5/mmNLSqgUA4eMEt/T9VDLptMJQdMNsgIj8squ5aUfzmMk49/NCu1++iXflvJr5X1wEwf9v7/xBm4jiOP7eXa73klwuMYM3VGpCiin+aZUW42SL4uKiOApOOtiCa4dWqhR0cdK6iGAHRQfpIA5FHURUpEPEpaJ4YAkdorFJm17u3r13905e0KLFwdAWeuTdeu/P7/2+n3vc+x78zjtGKb0MAEuqSAHYbTyDAbyuxzrerT+UZXp6MgHxJ3YaxulyubyDlzx1HOdlwNi0FHiP+U6/bh4pnz+8m1KyV4rINxljOVmWmuVRCcUfJAhmXKd2408no7+/XykWi152z4ERRe4YJsTdF41zS42a2CWTUiR4vfBp+3jZ2/WhaBuIfwtwaGDwXMO2p4LA1wBkshKBzLatOwvmlxHexjCMOFTQFYTQGd/3c/yjA0KoBiAc83Fj+n/stEJhaNdSrX7KcZzbiUQCUN8DfBxd1+cQUp+/fTU7wecaOHJ0nLpguFardvJ23H3QU4lH1jK5aJpzLZc32K6QbXVcbQfxr4TKmVzfeYSUWwB4qktws1i0pmmzlNIhjDHCGMOuri5Q/f7tqmXBqcXFef5uy1oRhO+01WV/VIrIowGDuoKize6rVuNuKpXsDBg7aa0sg1hUBcQlczENXWvUyy/+scu3Mm3btW1XiJtC9/b2xis1azKdTl2wbVunlHKQm/eIS+5JkvTE/DzP3YwNXdn9BSMuq2MegINLlWpfKp0GjDF+OASqzN5EkXp/qbL6sFL5uBn1jzcUaxg7tzXEAAC5u7sQp0H9eDwavYRdnPOJ+94P2Mxi6euDzRY0mx/Ia1ryrN3AJ3Q92VOvrzyFHp40zSL3lnl5i5Z2+s2OL6zjtTvEa7pls1mDl2CilNJSqbT2J8ytEDaTOZjyfRhLJNwfG/GTtyK2MI4pIA6jaiLmvzIgIBZAhD4DAuLQSygWICAWDIQ+AwLi0EsoFiAgFgyEPgMC4tBLKBYgIBYMhD4DPwGKAv1JbVCJRAAAAABJRU5ErkJggg==;" vertex="1" parent="1">
          <mxGeometry x="480" y="640" width="158.51" height="120" as="geometry" />
        </mxCell>
        <mxCell id="k0PMzmDsmBYJnkLfqHaI-15" value="User Verification Agent" style="text;html=1;align=center;verticalAlign=middle;whiteSpace=wrap;rounded=0;fontStyle=1;fontSize=14;" vertex="1" parent="1">
          <mxGeometry x="480" y="770" width="158.5" height="30" as="geometry" />
        </mxCell>
        <mxCell id="k0PMzmDsmBYJnkLfqHaI-16" value="" style="endArrow=classic;startArrow=classic;html=1;rounded=0;exitX=0.5;exitY=0;exitDx=0;exitDy=0;entryX=0;entryY=0.5;entryDx=0;entryDy=0;" edge="1" parent="1" source="k0PMzmDsmBYJnkLfqHaI-1" target="k0PMzmDsmBYJnkLfqHaI-12">
          <mxGeometry width="50" height="50" relative="1" as="geometry">
            <mxPoint x="440" y="620" as="sourcePoint" />
            <mxPoint x="490" y="570" as="targetPoint" />
            <Array as="points">
              <mxPoint x="189" y="380" />
            </Array>
          </mxGeometry>
        </mxCell>
        <mxCell id="k0PMzmDsmBYJnkLfqHaI-17" value="" style="endArrow=classic;startArrow=classic;html=1;rounded=0;exitX=0.5;exitY=1;exitDx=0;exitDy=0;entryX=0;entryY=0.5;entryDx=0;entryDy=0;" edge="1" parent="1" source="k0PMzmDsmBYJnkLfqHaI-2" target="k0PMzmDsmBYJnkLfqHaI-14">
          <mxGeometry width="50" height="50" relative="1" as="geometry">
            <mxPoint x="180" y="940" as="sourcePoint" />
            <mxPoint x="471" y="840" as="targetPoint" />
            <Array as="points">
              <mxPoint x="189" y="700" />
            </Array>
          </mxGeometry>
        </mxCell>
        <mxCell id="k0PMzmDsmBYJnkLfqHaI-21" value="" style="rounded=0;whiteSpace=wrap;html=1;fillColor=light-dark(#fcc6ec, #182e44);strokeColor=#36393d;verticalAlign=top;" vertex="1" parent="1">
          <mxGeometry x="414.25" y="-40" width="290" height="310" as="geometry" />
        </mxCell>
        <mxCell id="k0PMzmDsmBYJnkLfqHaI-22" value="Collaborator Agent Inputs/Outputs" style="text;html=1;align=center;verticalAlign=middle;whiteSpace=wrap;rounded=0;fontStyle=1;fontSize=14;" vertex="1" parent="1">
          <mxGeometry x="420.01" y="-69" width="278.5" height="30" as="geometry" />
        </mxCell>
        <mxCell id="k0PMzmDsmBYJnkLfqHaI-23" value="Inputs:&lt;div&gt;&lt;br&gt;&lt;/div&gt;&lt;div&gt;emailBody: &lt;span style=&quot;font-weight: normal;&quot;&gt;The email&#39;s content along with attachments.&lt;/span&gt;&lt;/div&gt;&lt;div&gt;&lt;span style=&quot;font-weight: normal;&quot;&gt;&lt;br&gt;&lt;/span&gt;&lt;/div&gt;&lt;div&gt;Outputs:&lt;/div&gt;&lt;div&gt;&lt;br&gt;&lt;/div&gt;&lt;div&gt;1. intent: &lt;span style=&quot;font-weight: normal;&quot;&gt;The categorization of the email.&lt;/span&gt;&lt;/div&gt;&lt;div&gt;&lt;span style=&quot;font-weight: normal;&quot;&gt;&lt;br&gt;&lt;/span&gt;&lt;/div&gt;&lt;div&gt;2. extractedDetails:&lt;span style=&quot;font-weight: normal;&quot;&gt; The fields to be extracted.&lt;/span&gt;&lt;/div&gt;&lt;div&gt;&lt;span style=&quot;font-weight: normal;&quot;&gt;&lt;br&gt;&lt;/span&gt;&lt;/div&gt;&lt;div&gt;3. isComplete:&lt;span style=&quot;font-weight: normal;&quot;&gt; The status of completeness&lt;/span&gt;&lt;/div&gt;&lt;div&gt;&lt;span style=&quot;font-weight: normal;&quot;&gt;&lt;br&gt;&lt;/span&gt;&lt;/div&gt;&lt;div&gt;4. missingFields:&lt;span style=&quot;font-weight: normal;&quot;&gt; List of missing fields.&lt;/span&gt;&lt;/div&gt;" style="text;html=1;align=left;verticalAlign=top;whiteSpace=wrap;rounded=0;fontStyle=1;fontSize=14;" vertex="1" parent="1">
          <mxGeometry x="434.25" y="-34" width="250" height="290" as="geometry" />
        </mxCell>
        <mxCell id="k0PMzmDsmBYJnkLfqHaI-30" value="" style="rounded=0;whiteSpace=wrap;html=1;fillColor=light-dark(#fcc6ec, #182e44);strokeColor=#36393d;" vertex="1" parent="1">
          <mxGeometry x="414.25" y="881" width="290" height="339" as="geometry" />
        </mxCell>
        <mxCell id="k0PMzmDsmBYJnkLfqHaI-31" value="Collaborator Agent Inputs/Outputs" style="text;html=1;align=center;verticalAlign=middle;whiteSpace=wrap;rounded=0;fontStyle=1;fontSize=14;" vertex="1" parent="1">
          <mxGeometry x="420" y="851" width="278.5" height="30" as="geometry" />
        </mxCell>
        <mxCell id="k0PMzmDsmBYJnkLfqHaI-32" value="Inputs:&lt;div&gt;&lt;br&gt;&lt;/div&gt;&lt;div&gt;1. cardNumber:&amp;nbsp;&lt;span style=&quot;font-weight: normal;&quot;&gt;&amp;nbsp;The complete number of the card.&lt;/span&gt;&lt;/div&gt;&lt;div&gt;&lt;br&gt;&lt;/div&gt;&lt;div&gt;2. registeredAddress:&amp;nbsp;&lt;span style=&quot;font-weight: normal;&quot;&gt;&amp;nbsp;The address registered with the bank.&lt;/span&gt;&lt;/div&gt;&lt;div&gt;&lt;br&gt;&lt;/div&gt;&lt;div&gt;Outputs:&lt;/div&gt;&lt;div&gt;&lt;br&gt;&lt;/div&gt;&lt;div&gt;1. verificationStatus: &lt;span style=&quot;font-weight: 400;&quot;&gt;The status of the verification request.&lt;/span&gt;&lt;/div&gt;&lt;div&gt;&lt;span style=&quot;font-weight: 400;&quot;&gt;&lt;br&gt;&lt;/span&gt;&lt;/div&gt;&lt;div&gt;2. databaseDetails:&lt;span style=&quot;font-weight: 400;&quot;&gt; The user details from the database.&lt;/span&gt;&lt;/div&gt;&lt;div&gt;&lt;span style=&quot;font-weight: 400;&quot;&gt;&lt;br&gt;&lt;/span&gt;&lt;/div&gt;&lt;div&gt;3. message:&lt;span style=&quot;font-weight: 400;&quot;&gt; A brief explanation of the user verification.&lt;/span&gt;&lt;/div&gt;" style="text;html=1;align=left;verticalAlign=top;whiteSpace=wrap;rounded=0;fontStyle=1;fontSize=14;" vertex="1" parent="1">
          <mxGeometry x="434.25" y="891" width="250" height="180" as="geometry" />
        </mxCell>
        <mxCell id="k0PMzmDsmBYJnkLfqHaI-33" value="" style="endArrow=none;html=1;rounded=0;exitX=0.5;exitY=0;exitDx=0;exitDy=0;entryX=0.5;entryY=1;entryDx=0;entryDy=0;" edge="1" parent="1" source="k0PMzmDsmBYJnkLfqHaI-12" target="k0PMzmDsmBYJnkLfqHaI-21">
          <mxGeometry width="50" height="50" relative="1" as="geometry">
            <mxPoint x="770" y="370" as="sourcePoint" />
            <mxPoint x="820" y="320" as="targetPoint" />
          </mxGeometry>
        </mxCell>
        <mxCell id="k0PMzmDsmBYJnkLfqHaI-34" value="" style="endArrow=none;html=1;rounded=0;entryX=0.5;entryY=1;entryDx=0;entryDy=0;exitX=0.5;exitY=0;exitDx=0;exitDy=0;" edge="1" parent="1" source="k0PMzmDsmBYJnkLfqHaI-31" target="k0PMzmDsmBYJnkLfqHaI-15">
          <mxGeometry width="50" height="50" relative="1" as="geometry">
            <mxPoint x="540" y="900" as="sourcePoint" />
            <mxPoint x="590" y="850" as="targetPoint" />
          </mxGeometry>
        </mxCell>
        <mxCell id="k0PMzmDsmBYJnkLfqHaI-35" value="Sends the card number and address from the customer&#39;s email" style="text;html=1;align=center;verticalAlign=middle;whiteSpace=wrap;rounded=0;fontSize=16;" vertex="1" parent="1">
          <mxGeometry x="140" y="300" width="240" height="50" as="geometry" />
        </mxCell>
        <mxCell id="k0PMzmDsmBYJnkLfqHaI-36" value="Receives the intent, extracted details and completeness, highlighting any missing fields if applicable" style="text;html=1;align=center;verticalAlign=middle;whiteSpace=wrap;rounded=0;fontSize=16;" vertex="1" parent="1">
          <mxGeometry x="210" y="420" width="240" height="30" as="geometry" />
        </mxCell>
      </root>
    </mxGraphModel>
  </diagram>
</mxfile>
